<svg width="274" height="58" viewBox="0 0 274 58" fill="none" xmlns="http://www.w3.org/2000/svg">
<path opacity="0.5" d="M10.3116 14.289C10.3776 14.289 10.4472 14.3073 10.5206 14.344C10.6012 14.3807 10.6636 14.4283 10.7076 14.487L13.6226 18.898L13.2376 18.887L16.1856 14.487C16.2809 14.3477 16.4056 14.2817 16.5596 14.289C16.6769 14.2963 16.7796 14.3403 16.8676 14.421C16.9556 14.5017 16.9996 14.608 16.9996 14.74V21.549C16.9996 21.6737 16.9556 21.78 16.8676 21.868C16.7796 21.956 16.6696 22 16.5376 22C16.4056 22 16.2956 21.956 16.2076 21.868C16.1196 21.78 16.0756 21.6737 16.0756 21.549V15.576L16.3506 15.631L13.7546 19.58C13.7106 19.6313 13.6556 19.6753 13.5896 19.712C13.5309 19.7487 13.4686 19.767 13.4026 19.767C13.3366 19.767 13.2706 19.7487 13.2046 19.712C13.1386 19.6753 13.0836 19.6313 13.0396 19.58L10.4766 15.631L10.7076 15.345V21.549C10.7076 21.6737 10.6672 21.78 10.5866 21.868C10.5059 21.956 10.4032 22 10.2786 22C10.1539 22 10.0512 21.956 9.97058 21.868C9.89724 21.78 9.86058 21.6737 9.86058 21.549V14.74C9.86058 14.6227 9.90091 14.52 9.98158 14.432C10.0696 14.3367 10.1796 14.289 10.3116 14.289ZM24.174 19.14C24.174 19.712 24.0457 20.2217 23.789 20.669C23.5397 21.1163 23.1987 21.4683 22.766 21.725C22.3407 21.9817 21.8603 22.11 21.325 22.11C20.7897 22.11 20.3057 21.9817 19.873 21.725C19.4403 21.4683 19.0957 21.1163 18.839 20.669C18.5897 20.2217 18.465 19.712 18.465 19.14C18.465 18.568 18.5897 18.0583 18.839 17.611C19.0957 17.1637 19.4403 16.8117 19.873 16.555C20.3057 16.2983 20.7897 16.17 21.325 16.17C21.8603 16.17 22.3407 16.2983 22.766 16.555C23.1987 16.8117 23.5397 17.1637 23.789 17.611C24.0457 18.0583 24.174 18.568 24.174 19.14ZM23.294 19.14C23.294 18.7147 23.206 18.3407 23.03 18.018C22.8613 17.6953 22.6267 17.4423 22.326 17.259C22.0327 17.0757 21.699 16.984 21.325 16.984C20.951 16.984 20.6137 17.0757 20.313 17.259C20.0197 17.4423 19.785 17.6953 19.609 18.018C19.433 18.3407 19.345 18.7147 19.345 19.14C19.345 19.558 19.433 19.9283 19.609 20.251C19.785 20.5737 20.0197 20.8303 20.313 21.021C20.6137 21.2043 20.951 21.296 21.325 21.296C21.699 21.296 22.0327 21.2043 22.326 21.021C22.6267 20.8303 22.8613 20.5737 23.03 20.251C23.206 19.9283 23.294 19.558 23.294 19.14ZM28.3246 16.17C28.8233 16.17 29.2156 16.2727 29.5016 16.478C29.7876 16.6833 29.9893 16.9583 30.1066 17.303C30.2313 17.6477 30.2936 18.0327 30.2936 18.458V21.549C30.2936 21.6737 30.2496 21.78 30.1616 21.868C30.0809 21.956 29.9783 22 29.8536 22C29.7289 22 29.6226 21.956 29.5346 21.868C29.4539 21.78 29.4136 21.6737 29.4136 21.549V18.48C29.4136 18.2013 29.3696 17.952 29.2816 17.732C29.2009 17.5047 29.0616 17.325 28.8636 17.193C28.6729 17.0537 28.4089 16.984 28.0716 16.984C27.7636 16.984 27.4813 17.0537 27.2246 17.193C26.9679 17.325 26.7626 17.5047 26.6086 17.732C26.4546 17.952 26.3776 18.2013 26.3776 18.48V21.549C26.3776 21.6737 26.3336 21.78 26.2456 21.868C26.1649 21.956 26.0623 22 25.9376 22C25.8129 22 25.7066 21.956 25.6186 21.868C25.5379 21.78 25.4976 21.6737 25.4976 21.549V16.753C25.4976 16.6283 25.5379 16.5257 25.6186 16.445C25.7066 16.357 25.8129 16.313 25.9376 16.313C26.0696 16.313 26.1759 16.357 26.2566 16.445C26.3373 16.5257 26.3776 16.6283 26.3776 16.753V17.534L26.1576 17.776C26.1943 17.5853 26.2786 17.3947 26.4106 17.204C26.5426 17.006 26.7076 16.83 26.9056 16.676C27.1036 16.522 27.3236 16.401 27.5656 16.313C27.8076 16.2177 28.0606 16.17 28.3246 16.17Z" fill="black"/>
<path opacity="0.7" d="M16.6383 43C16.4236 43 16.2463 42.9347 16.1063 42.804C15.9663 42.664 15.8963 42.4913 15.8963 42.286V34.782L16.0783 35.034L14.7763 35.944C14.6643 36.0373 14.529 36.084 14.3703 36.084C14.1836 36.084 14.0156 36.014 13.8663 35.874C13.7263 35.7247 13.6563 35.552 13.6563 35.356C13.6563 35.1133 13.7776 34.9127 14.0203 34.754L16.1483 33.34C16.2323 33.284 16.321 33.2467 16.4143 33.228C16.517 33.2093 16.6103 33.2 16.6943 33.2C16.909 33.2 17.0816 33.27 17.2123 33.41C17.343 33.5407 17.4083 33.7087 17.4083 33.914V42.286C17.4083 42.4913 17.3336 42.664 17.1843 42.804C17.0443 42.9347 16.8623 43 16.6383 43ZM22.6557 33.032C23.1783 33.032 23.6403 33.1347 24.0417 33.34C24.4523 33.5453 24.793 33.8253 25.0637 34.18C25.3437 34.5253 25.5537 34.922 25.6937 35.37C25.843 35.8087 25.9177 36.266 25.9177 36.742C25.9177 37.106 25.8757 37.526 25.7917 38.002C25.7077 38.4687 25.5677 38.9587 25.3717 39.472C25.1757 39.9853 24.9143 40.48 24.5877 40.956C24.2703 41.432 23.869 41.8613 23.3837 42.244C22.9077 42.6173 22.3383 42.9067 21.6757 43.112C21.5823 43.1307 21.4937 43.14 21.4097 43.14C21.223 43.14 21.055 43.0887 20.9057 42.986C20.7657 42.8833 20.6957 42.7153 20.6957 42.482C20.6957 42.3047 20.7517 42.1553 20.8637 42.034C20.9757 41.9127 21.125 41.824 21.3117 41.768C21.769 41.6 22.217 41.3433 22.6557 40.998C23.0943 40.6433 23.4723 40.228 23.7897 39.752C24.107 39.2667 24.3217 38.7487 24.4337 38.198L24.7837 38.142C24.6437 38.338 24.4663 38.5387 24.2517 38.744C24.037 38.9493 23.7803 39.122 23.4817 39.262C23.183 39.3927 22.8377 39.458 22.4457 39.458C21.839 39.458 21.3117 39.3227 20.8637 39.052C20.4157 38.772 20.0703 38.3893 19.8277 37.904C19.585 37.4187 19.4637 36.8633 19.4637 36.238C19.4637 35.6593 19.6037 35.1273 19.8837 34.642C20.173 34.1567 20.5557 33.7693 21.0317 33.48C21.517 33.1813 22.0583 33.032 22.6557 33.032ZM22.6697 34.32C22.3243 34.32 22.0163 34.404 21.7457 34.572C21.475 34.74 21.2603 34.9687 21.1017 35.258C20.943 35.5473 20.8637 35.874 20.8637 36.238C20.8637 36.602 20.9337 36.9333 21.0737 37.232C21.2137 37.5213 21.419 37.75 21.6897 37.918C21.9603 38.086 22.2777 38.17 22.6417 38.17C23.0057 38.17 23.3277 38.086 23.6077 37.918C23.8877 37.7407 24.107 37.5027 24.2657 37.204C24.4243 36.9053 24.5037 36.5787 24.5037 36.224C24.5037 35.8693 24.4243 35.552 24.2657 35.272C24.107 34.9827 23.8923 34.754 23.6217 34.586C23.351 34.4087 23.0337 34.32 22.6697 34.32Z" fill="black"/>
<path opacity="0.5" d="M53.3369 22C53.2049 22 53.0949 21.956 53.0069 21.868C52.9189 21.78 52.8749 21.6737 52.8749 21.549V14.751H53.8099V21.549C53.8099 21.6737 53.7659 21.78 53.6779 21.868C53.5899 21.956 53.4763 22 53.3369 22ZM50.7849 15.136C50.6603 15.136 50.5539 15.0993 50.4659 15.026C50.3853 14.9453 50.3449 14.8427 50.3449 14.718C50.3449 14.5933 50.3853 14.4943 50.4659 14.421C50.5539 14.3403 50.6603 14.3 50.7849 14.3H55.8999C56.0246 14.3 56.1309 14.3403 56.2189 14.421C56.3069 14.4943 56.3509 14.5933 56.3509 14.718C56.3509 14.85 56.3069 14.9527 56.2189 15.026C56.1309 15.0993 56.0246 15.136 55.8999 15.136H50.7849ZM60.4563 16.313C60.5883 16.313 60.6946 16.357 60.7753 16.445C60.8559 16.5257 60.8963 16.6283 60.8963 16.753V19.756C60.8963 20.4967 60.6873 21.0723 60.2693 21.483C59.8586 21.8863 59.2829 22.088 58.5423 22.088C57.8089 22.088 57.2333 21.8863 56.8153 21.483C56.4046 21.0723 56.1993 20.4967 56.1993 19.756V16.753C56.1993 16.6283 56.2396 16.5257 56.3203 16.445C56.4083 16.357 56.5146 16.313 56.6393 16.313C56.7713 16.313 56.8776 16.357 56.9583 16.445C57.0389 16.5257 57.0793 16.6283 57.0793 16.753V19.756C57.0793 20.2547 57.2076 20.6323 57.4643 20.889C57.7209 21.1457 58.0803 21.274 58.5423 21.274C59.0189 21.274 59.3819 21.1457 59.6313 20.889C59.8879 20.6323 60.0163 20.2547 60.0163 19.756V16.753C60.0163 16.6283 60.0566 16.5257 60.1373 16.445C60.2253 16.357 60.3316 16.313 60.4563 16.313ZM65.1554 22.11C64.5687 22.11 64.0554 21.9853 63.6154 21.736C63.1754 21.4867 62.8307 21.1457 62.5814 20.713C62.3394 20.273 62.2184 19.767 62.2184 19.195C62.2184 18.557 62.3431 18.0143 62.5924 17.567C62.8491 17.1123 63.1791 16.7677 63.5824 16.533C63.9931 16.291 64.4257 16.17 64.8804 16.17C65.2177 16.17 65.5441 16.2323 65.8594 16.357C66.1747 16.4817 66.4534 16.665 66.6954 16.907C66.9374 17.1417 67.1317 17.4277 67.2784 17.765C67.4251 18.095 67.5021 18.4653 67.5094 18.876C67.5094 18.9933 67.4654 19.0923 67.3774 19.173C67.2894 19.2537 67.1867 19.294 67.0694 19.294H62.7244L62.5264 18.535H66.7614L66.5854 18.689V18.447C66.5561 18.1463 66.4534 17.8897 66.2774 17.677C66.1087 17.457 65.8997 17.2883 65.6504 17.171C65.4084 17.0537 65.1517 16.995 64.8804 16.995C64.6604 16.995 64.4404 17.0353 64.2204 17.116C64.0077 17.1893 63.8134 17.314 63.6374 17.49C63.4687 17.6587 63.3294 17.8787 63.2194 18.15C63.1167 18.4213 63.0654 18.7477 63.0654 19.129C63.0654 19.5543 63.1497 19.9283 63.3184 20.251C63.4944 20.5737 63.7364 20.8303 64.0444 21.021C64.3524 21.2043 64.7117 21.296 65.1224 21.296C65.3791 21.296 65.6027 21.263 65.7934 21.197C65.9841 21.131 66.1491 21.0503 66.2884 20.955C66.4277 20.8523 66.5451 20.7497 66.6404 20.647C66.7357 20.581 66.8274 20.548 66.9154 20.548C67.0254 20.548 67.1134 20.5847 67.1794 20.658C67.2527 20.7313 67.2894 20.8193 67.2894 20.922C67.2894 21.0467 67.2307 21.1567 67.1134 21.252C66.9081 21.4793 66.6294 21.681 66.2774 21.857C65.9254 22.0257 65.5514 22.11 65.1554 22.11Z" fill="black"/>
<path opacity="0.7" d="M57.272 41.698C57.4587 41.698 57.6127 41.7633 57.734 41.894C57.8647 42.0153 57.93 42.1693 57.93 42.356C57.93 42.5427 57.8647 42.6967 57.734 42.818C57.6127 42.9393 57.4587 43 57.272 43H52.358C52.1527 43 51.9894 42.9393 51.868 42.818C51.7467 42.6967 51.686 42.5333 51.686 42.328C51.686 42.1413 51.7514 41.9733 51.882 41.824L55.004 38.45C55.4054 38.0207 55.7134 37.596 55.928 37.176C56.152 36.756 56.264 36.3873 56.264 36.07C56.264 35.5567 56.11 35.1413 55.802 34.824C55.494 34.5067 55.088 34.348 54.584 34.348C54.3694 34.348 54.15 34.3993 53.926 34.502C53.7114 34.5953 53.506 34.726 53.31 34.894C53.1234 35.0527 52.96 35.2393 52.82 35.454C52.7267 35.5847 52.6334 35.6687 52.54 35.706C52.4467 35.7433 52.358 35.762 52.274 35.762C52.0967 35.762 51.9334 35.7013 51.784 35.58C51.644 35.4493 51.574 35.3 51.574 35.132C51.574 35.0013 51.616 34.8753 51.7 34.754C51.784 34.6327 51.8914 34.5067 52.022 34.376C52.2274 34.124 52.4747 33.9 52.764 33.704C53.0627 33.4987 53.3754 33.34 53.702 33.228C54.0287 33.116 54.3507 33.06 54.668 33.06C55.284 33.06 55.816 33.1813 56.264 33.424C56.7214 33.6667 57.0714 34.0073 57.314 34.446C57.566 34.8847 57.692 35.4027 57.692 36C57.692 36.504 57.538 37.064 57.23 37.68C56.9314 38.2867 56.5114 38.884 55.97 39.472L53.8 41.838L53.646 41.698H57.272ZM62.9484 43.14C62.1644 43.14 61.5017 42.9253 60.9604 42.496C60.419 42.0573 60.0084 41.46 59.7284 40.704C59.4577 39.9387 59.3224 39.0707 59.3224 38.1C59.3224 37.12 59.4577 36.252 59.7284 35.496C60.0084 34.7307 60.419 34.1333 60.9604 33.704C61.5017 33.2747 62.1644 33.06 62.9484 33.06C63.7324 33.06 64.3904 33.2747 64.9224 33.704C65.4637 34.1333 65.8744 34.7307 66.1544 35.496C66.4344 36.252 66.5744 37.12 66.5744 38.1C66.5744 39.0707 66.4344 39.9387 66.1544 40.704C65.8744 41.46 65.4637 42.0573 64.9224 42.496C64.3904 42.9253 63.7324 43.14 62.9484 43.14ZM62.9484 41.726C63.387 41.726 63.7604 41.586 64.0684 41.306C64.3857 41.026 64.6284 40.6153 64.7964 40.074C64.9737 39.5327 65.0624 38.8747 65.0624 38.1C65.0624 37.316 64.9737 36.6533 64.7964 36.112C64.6284 35.5707 64.3857 35.16 64.0684 34.88C63.7604 34.6 63.387 34.46 62.9484 34.46C62.5097 34.46 62.1317 34.6 61.8144 34.88C61.497 35.16 61.2544 35.5707 61.0864 36.112C60.9184 36.6533 60.8344 37.316 60.8344 38.1C60.8344 38.8747 60.9184 39.5327 61.0864 40.074C61.2544 40.6153 61.497 41.026 61.8144 41.306C62.1317 41.586 62.5097 41.726 62.9484 41.726Z" fill="black"/>
<path opacity="0.5" d="M96.0649 14.267C96.1822 14.267 96.2886 14.3073 96.3839 14.388C96.4866 14.4687 96.5379 14.5823 96.5379 14.729C96.5379 14.7803 96.5306 14.8353 96.5159 14.894L94.1729 21.714C94.1436 21.802 94.0886 21.8717 94.0079 21.923C93.9346 21.967 93.8576 21.9927 93.7769 22C93.6889 22 93.6046 21.978 93.5239 21.934C93.4432 21.8827 93.3809 21.8093 93.3369 21.714L91.4999 17.27L91.5879 17.303L89.7619 21.714C89.7179 21.8093 89.6556 21.8827 89.5749 21.934C89.4942 21.978 89.4099 22 89.3219 22C89.2412 21.9927 89.1606 21.967 89.0799 21.923C89.0066 21.8717 88.9552 21.802 88.9259 21.714L86.5829 14.894C86.5682 14.8353 86.5609 14.784 86.5609 14.74C86.5609 14.5933 86.6122 14.4797 86.7149 14.399C86.8249 14.311 86.9349 14.267 87.0449 14.267C87.1329 14.267 87.2172 14.2927 87.2979 14.344C87.3786 14.3953 87.4336 14.465 87.4629 14.553L89.5199 20.625H89.3659L91.1589 16.192C91.1956 16.104 91.2506 16.0343 91.3239 15.983C91.3972 15.9317 91.4816 15.906 91.5769 15.906C91.6649 15.906 91.7456 15.9317 91.8189 15.983C91.8996 16.0343 91.9546 16.104 91.9839 16.192L93.7219 20.559L93.5899 20.614L95.6359 14.553C95.6652 14.465 95.7202 14.3953 95.8009 14.344C95.8816 14.2927 95.9696 14.267 96.0649 14.267ZM100.106 22.11C99.5189 22.11 99.0056 21.9853 98.5656 21.736C98.1256 21.4867 97.7809 21.1457 97.5316 20.713C97.2896 20.273 97.1686 19.767 97.1686 19.195C97.1686 18.557 97.2933 18.0143 97.5426 17.567C97.7993 17.1123 98.1293 16.7677 98.5326 16.533C98.9433 16.291 99.3759 16.17 99.8306 16.17C100.168 16.17 100.494 16.2323 100.81 16.357C101.125 16.4817 101.404 16.665 101.646 16.907C101.888 17.1417 102.082 17.4277 102.229 17.765C102.375 18.095 102.452 18.4653 102.46 18.876C102.46 18.9933 102.416 19.0923 102.328 19.173C102.24 19.2537 102.137 19.294 102.02 19.294H97.6746L97.4766 18.535H101.712L101.536 18.689V18.447C101.506 18.1463 101.404 17.8897 101.228 17.677C101.059 17.457 100.85 17.2883 100.601 17.171C100.359 17.0537 100.102 16.995 99.8306 16.995C99.6106 16.995 99.3906 17.0353 99.1706 17.116C98.9579 17.1893 98.7636 17.314 98.5876 17.49C98.4189 17.6587 98.2796 17.8787 98.1696 18.15C98.0669 18.4213 98.0156 18.7477 98.0156 19.129C98.0156 19.5543 98.0999 19.9283 98.2686 20.251C98.4446 20.5737 98.6866 20.8303 98.9946 21.021C99.3026 21.2043 99.6619 21.296 100.073 21.296C100.329 21.296 100.553 21.263 100.744 21.197C100.934 21.131 101.099 21.0503 101.239 20.955C101.378 20.8523 101.495 20.7497 101.591 20.647C101.686 20.581 101.778 20.548 101.866 20.548C101.976 20.548 102.064 20.5847 102.13 20.658C102.203 20.7313 102.24 20.8193 102.24 20.922C102.24 21.0467 102.181 21.1567 102.064 21.252C101.858 21.4793 101.58 21.681 101.228 21.857C100.876 22.0257 100.502 22.11 100.106 22.11ZM108.468 13.86C108.593 13.86 108.696 13.904 108.776 13.992C108.864 14.0727 108.908 14.1753 108.908 14.3V21.549C108.908 21.6737 108.864 21.78 108.776 21.868C108.696 21.956 108.593 22 108.468 22C108.336 22 108.23 21.956 108.149 21.868C108.069 21.78 108.028 21.6737 108.028 21.549V20.504L108.237 20.427C108.237 20.603 108.182 20.79 108.072 20.988C107.962 21.1787 107.812 21.3583 107.621 21.527C107.431 21.6957 107.203 21.835 106.939 21.945C106.683 22.055 106.404 22.11 106.103 22.11C105.612 22.11 105.165 21.9817 104.761 21.725C104.365 21.4683 104.05 21.1163 103.815 20.669C103.588 20.2217 103.474 19.712 103.474 19.14C103.474 18.5607 103.588 18.0473 103.815 17.6C104.05 17.1527 104.365 16.8043 104.761 16.555C105.157 16.2983 105.597 16.17 106.081 16.17C106.389 16.17 106.679 16.2213 106.95 16.324C107.222 16.4267 107.456 16.566 107.654 16.742C107.86 16.918 108.021 17.1123 108.138 17.325C108.256 17.5377 108.314 17.7503 108.314 17.963L108.028 17.897V14.3C108.028 14.1753 108.069 14.0727 108.149 13.992C108.23 13.904 108.336 13.86 108.468 13.86ZM106.202 21.296C106.569 21.296 106.892 21.2043 107.17 21.021C107.456 20.8303 107.676 20.5737 107.83 20.251C107.992 19.921 108.072 19.5507 108.072 19.14C108.072 18.722 107.992 18.3517 107.83 18.029C107.676 17.7063 107.456 17.4533 107.17 17.27C106.892 17.0793 106.569 16.984 106.202 16.984C105.843 16.984 105.52 17.0793 105.234 17.27C104.956 17.4533 104.736 17.7063 104.574 18.029C104.413 18.3517 104.332 18.722 104.332 19.14C104.332 19.5433 104.413 19.91 104.574 20.24C104.736 20.5627 104.956 20.8193 105.234 21.01C105.52 21.2007 105.843 21.296 106.202 21.296Z" fill="black"/>
<path opacity="0.7" d="M97.8511 41.698C98.0378 41.698 98.1918 41.7633 98.3131 41.894C98.4438 42.0153 98.5091 42.1693 98.5091 42.356C98.5091 42.5427 98.4438 42.6967 98.3131 42.818C98.1918 42.9393 98.0378 43 97.8511 43H92.9371C92.7318 43 92.5685 42.9393 92.4471 42.818C92.3258 42.6967 92.2651 42.5333 92.2651 42.328C92.2651 42.1413 92.3305 41.9733 92.4611 41.824L95.5831 38.45C95.9845 38.0207 96.2925 37.596 96.5071 37.176C96.7311 36.756 96.8431 36.3873 96.8431 36.07C96.8431 35.5567 96.6891 35.1413 96.3811 34.824C96.0731 34.5067 95.6671 34.348 95.1631 34.348C94.9485 34.348 94.7291 34.3993 94.5051 34.502C94.2905 34.5953 94.0851 34.726 93.8891 34.894C93.7025 35.0527 93.5391 35.2393 93.3991 35.454C93.3058 35.5847 93.2125 35.6687 93.1191 35.706C93.0258 35.7433 92.9371 35.762 92.8531 35.762C92.6758 35.762 92.5125 35.7013 92.3631 35.58C92.2231 35.4493 92.1531 35.3 92.1531 35.132C92.1531 35.0013 92.1951 34.8753 92.2791 34.754C92.3631 34.6327 92.4705 34.5067 92.6011 34.376C92.8065 34.124 93.0538 33.9 93.3431 33.704C93.6418 33.4987 93.9545 33.34 94.2811 33.228C94.6078 33.116 94.9298 33.06 95.2471 33.06C95.8631 33.06 96.3951 33.1813 96.8431 33.424C97.3005 33.6667 97.6505 34.0073 97.8931 34.446C98.1451 34.8847 98.2711 35.4027 98.2711 36C98.2711 36.504 98.1171 37.064 97.8091 37.68C97.5105 38.2867 97.0905 38.884 96.5491 39.472L94.3791 41.838L94.2251 41.698H97.8511ZM102.547 43C102.333 43 102.155 42.9347 102.015 42.804C101.875 42.664 101.805 42.4913 101.805 42.286V34.782L101.987 35.034L100.685 35.944C100.573 36.0373 100.438 36.084 100.279 36.084C100.093 36.084 99.9248 36.014 99.7755 35.874C99.6355 35.7247 99.5655 35.552 99.5655 35.356C99.5655 35.1133 99.6868 34.9127 99.9295 34.754L102.057 33.34C102.141 33.284 102.23 33.2467 102.323 33.228C102.426 33.2093 102.519 33.2 102.603 33.2C102.818 33.2 102.991 33.27 103.121 33.41C103.252 33.5407 103.317 33.7087 103.317 33.914V42.286C103.317 42.4913 103.243 42.664 103.093 42.804C102.953 42.9347 102.771 43 102.547 43Z" fill="black"/>
<path opacity="0.5" d="M130.671 22C130.539 22 130.429 21.956 130.341 21.868C130.253 21.78 130.209 21.6737 130.209 21.549V14.751H131.144V21.549C131.144 21.6737 131.1 21.78 131.012 21.868C130.924 21.956 130.81 22 130.671 22ZM128.119 15.136C127.994 15.136 127.888 15.0993 127.8 15.026C127.719 14.9453 127.679 14.8427 127.679 14.718C127.679 14.5933 127.719 14.4943 127.8 14.421C127.888 14.3403 127.994 14.3 128.119 14.3H133.234C133.359 14.3 133.465 14.3403 133.553 14.421C133.641 14.4943 133.685 14.5933 133.685 14.718C133.685 14.85 133.641 14.9527 133.553 15.026C133.465 15.0993 133.359 15.136 133.234 15.136H128.119ZM137.605 16.225C138.089 16.225 138.47 16.3313 138.749 16.544C139.035 16.7493 139.236 17.028 139.354 17.38C139.478 17.7247 139.541 18.1097 139.541 18.535V21.549C139.541 21.6737 139.497 21.78 139.409 21.868C139.328 21.956 139.225 22 139.101 22C138.976 22 138.87 21.956 138.782 21.868C138.701 21.78 138.661 21.6737 138.661 21.549V18.535C138.661 18.2563 138.62 18.007 138.54 17.787C138.459 17.5597 138.323 17.38 138.133 17.248C137.949 17.1087 137.696 17.039 137.374 17.039C137.073 17.039 136.798 17.1087 136.549 17.248C136.299 17.38 136.101 17.5597 135.955 17.787C135.808 18.007 135.735 18.2563 135.735 18.535V21.549C135.735 21.6737 135.691 21.78 135.603 21.868C135.522 21.956 135.419 22 135.295 22C135.17 22 135.064 21.956 134.976 21.868C134.895 21.78 134.855 21.6737 134.855 21.549V14.3C134.855 14.1753 134.895 14.0727 134.976 13.992C135.064 13.904 135.17 13.86 135.295 13.86C135.427 13.86 135.533 13.904 135.614 13.992C135.694 14.0727 135.735 14.1753 135.735 14.3V17.589L135.515 17.831C135.551 17.6403 135.632 17.4497 135.757 17.259C135.881 17.061 136.039 16.885 136.23 16.731C136.42 16.577 136.633 16.456 136.868 16.368C137.102 16.2727 137.348 16.225 137.605 16.225ZM145.428 16.313C145.56 16.313 145.666 16.357 145.747 16.445C145.828 16.5257 145.868 16.6283 145.868 16.753V19.756C145.868 20.4967 145.659 21.0723 145.241 21.483C144.83 21.8863 144.255 22.088 143.514 22.088C142.781 22.088 142.205 21.8863 141.787 21.483C141.376 21.0723 141.171 20.4967 141.171 19.756V16.753C141.171 16.6283 141.211 16.5257 141.292 16.445C141.38 16.357 141.486 16.313 141.611 16.313C141.743 16.313 141.849 16.357 141.93 16.445C142.011 16.5257 142.051 16.6283 142.051 16.753V19.756C142.051 20.2547 142.179 20.6323 142.436 20.889C142.693 21.1457 143.052 21.274 143.514 21.274C143.991 21.274 144.354 21.1457 144.603 20.889C144.86 20.6323 144.988 20.2547 144.988 19.756V16.753C144.988 16.6283 145.028 16.5257 145.109 16.445C145.197 16.357 145.303 16.313 145.428 16.313Z" fill="black"/>
<path opacity="0.7" d="M135.58 41.698C135.766 41.698 135.92 41.7633 136.042 41.894C136.172 42.0153 136.238 42.1693 136.238 42.356C136.238 42.5427 136.172 42.6967 136.042 42.818C135.92 42.9393 135.766 43 135.58 43H130.666C130.46 43 130.297 42.9393 130.176 42.818C130.054 42.6967 129.994 42.5333 129.994 42.328C129.994 42.1413 130.059 41.9733 130.19 41.824L133.312 38.45C133.713 38.0207 134.021 37.596 134.236 37.176C134.46 36.756 134.572 36.3873 134.572 36.07C134.572 35.5567 134.418 35.1413 134.11 34.824C133.802 34.5067 133.396 34.348 132.892 34.348C132.677 34.348 132.458 34.3993 132.234 34.502C132.019 34.5953 131.814 34.726 131.618 34.894C131.431 35.0527 131.268 35.2393 131.128 35.454C131.034 35.5847 130.941 35.6687 130.848 35.706C130.754 35.7433 130.666 35.762 130.582 35.762C130.404 35.762 130.241 35.7013 130.092 35.58C129.952 35.4493 129.882 35.3 129.882 35.132C129.882 35.0013 129.924 34.8753 130.008 34.754C130.092 34.6327 130.199 34.5067 130.33 34.376C130.535 34.124 130.782 33.9 131.072 33.704C131.37 33.4987 131.683 33.34 132.01 33.228C132.336 33.116 132.658 33.06 132.976 33.06C133.592 33.06 134.124 33.1813 134.572 33.424C135.029 33.6667 135.379 34.0073 135.622 34.446C135.874 34.8847 136 35.4027 136 36C136 36.504 135.846 37.064 135.538 37.68C135.239 38.2867 134.819 38.884 134.278 39.472L132.108 41.838L131.954 41.698H135.58ZM143.482 41.698C143.669 41.698 143.823 41.7633 143.944 41.894C144.075 42.0153 144.14 42.1693 144.14 42.356C144.14 42.5427 144.075 42.6967 143.944 42.818C143.823 42.9393 143.669 43 143.482 43H138.568C138.363 43 138.199 42.9393 138.078 42.818C137.957 42.6967 137.896 42.5333 137.896 42.328C137.896 42.1413 137.961 41.9733 138.092 41.824L141.214 38.45C141.615 38.0207 141.923 37.596 142.138 37.176C142.362 36.756 142.474 36.3873 142.474 36.07C142.474 35.5567 142.32 35.1413 142.012 34.824C141.704 34.5067 141.298 34.348 140.794 34.348C140.579 34.348 140.36 34.3993 140.136 34.502C139.921 34.5953 139.716 34.726 139.52 34.894C139.333 35.0527 139.17 35.2393 139.03 35.454C138.937 35.5847 138.843 35.6687 138.75 35.706C138.657 35.7433 138.568 35.762 138.484 35.762C138.307 35.762 138.143 35.7013 137.994 35.58C137.854 35.4493 137.784 35.3 137.784 35.132C137.784 35.0013 137.826 34.8753 137.91 34.754C137.994 34.6327 138.101 34.5067 138.232 34.376C138.437 34.124 138.685 33.9 138.974 33.704C139.273 33.4987 139.585 33.34 139.912 33.228C140.239 33.116 140.561 33.06 140.878 33.06C141.494 33.06 142.026 33.1813 142.474 33.424C142.931 33.6667 143.281 34.0073 143.524 34.446C143.776 34.8847 143.902 35.4027 143.902 36C143.902 36.504 143.748 37.064 143.44 37.68C143.141 38.2867 142.721 38.884 142.18 39.472L140.01 41.838L139.856 41.698H143.482Z" fill="black"/>
<rect x="156.5" width="39" height="58" rx="8" fill="#776EA5"/>
<path d="M170.868 22C170.692 22 170.549 21.9487 170.439 21.846C170.336 21.736 170.285 21.6003 170.285 21.439V14.861C170.285 14.6997 170.34 14.5677 170.45 14.465C170.56 14.355 170.692 14.3 170.846 14.3H174.564C174.725 14.3 174.857 14.3513 174.96 14.454C175.07 14.5567 175.125 14.685 175.125 14.839C175.125 14.9783 175.07 15.0993 174.96 15.202C174.857 15.3047 174.725 15.356 174.564 15.356H171.352L171.429 15.246V17.699L171.363 17.567H174.069C174.23 17.567 174.362 17.6183 174.465 17.721C174.575 17.8237 174.63 17.952 174.63 18.106C174.63 18.2453 174.575 18.3663 174.465 18.469C174.362 18.5717 174.23 18.623 174.069 18.623H171.341L171.429 18.535V21.439C171.429 21.6003 171.374 21.736 171.264 21.846C171.154 21.9487 171.022 22 170.868 22ZM176.815 22C176.654 22 176.522 21.9487 176.419 21.846C176.316 21.736 176.265 21.6003 176.265 21.439V16.775C176.265 16.6137 176.316 16.4817 176.419 16.379C176.522 16.269 176.654 16.214 176.815 16.214C176.969 16.214 177.097 16.269 177.2 16.379C177.31 16.4817 177.365 16.6137 177.365 16.775V18.007L177.255 17.534C177.314 17.3287 177.402 17.138 177.519 16.962C177.644 16.786 177.79 16.632 177.959 16.5C178.128 16.368 178.315 16.2653 178.52 16.192C178.733 16.1187 178.953 16.082 179.18 16.082C179.371 16.082 179.536 16.1333 179.675 16.236C179.814 16.3387 179.884 16.467 179.884 16.621C179.884 16.819 179.833 16.9657 179.73 17.061C179.627 17.149 179.514 17.193 179.389 17.193C179.279 17.193 179.173 17.171 179.07 17.127C178.967 17.0757 178.846 17.05 178.707 17.05C178.553 17.05 178.395 17.0903 178.234 17.171C178.073 17.2517 177.926 17.3727 177.794 17.534C177.662 17.688 177.556 17.8713 177.475 18.084C177.402 18.2967 177.365 18.535 177.365 18.799V21.439C177.365 21.6003 177.31 21.736 177.2 21.846C177.097 21.9487 176.969 22 176.815 22ZM181.897 21.439C181.897 21.6003 181.845 21.736 181.743 21.846C181.64 21.9487 181.508 22 181.347 22C181.193 22 181.061 21.9487 180.951 21.846C180.848 21.736 180.797 21.6003 180.797 21.439V16.731C180.797 16.5697 180.848 16.4377 180.951 16.335C181.061 16.225 181.193 16.17 181.347 16.17C181.508 16.17 181.64 16.225 181.743 16.335C181.845 16.4377 181.897 16.5697 181.897 16.731V21.439ZM181.336 15.444C181.123 15.444 180.969 15.4073 180.874 15.334C180.778 15.2533 180.731 15.1213 180.731 14.938V14.762C180.731 14.5787 180.782 14.4503 180.885 14.377C180.987 14.3037 181.141 14.267 181.347 14.267C181.567 14.267 181.724 14.3073 181.82 14.388C181.915 14.4613 181.963 14.586 181.963 14.762V14.938C181.963 15.1287 181.911 15.2607 181.809 15.334C181.713 15.4073 181.556 15.444 181.336 15.444Z" fill="white"/>
<path d="M174.798 41.698C174.985 41.698 175.139 41.7633 175.26 41.894C175.391 42.0153 175.456 42.1693 175.456 42.356C175.456 42.5427 175.391 42.6967 175.26 42.818C175.139 42.9393 174.985 43 174.798 43H169.884C169.679 43 169.516 42.9393 169.394 42.818C169.273 42.6967 169.212 42.5333 169.212 42.328C169.212 42.1413 169.278 41.9733 169.408 41.824L172.53 38.45C172.932 38.0207 173.24 37.596 173.454 37.176C173.678 36.756 173.79 36.3873 173.79 36.07C173.79 35.5567 173.636 35.1413 173.328 34.824C173.02 34.5067 172.614 34.348 172.11 34.348C171.896 34.348 171.676 34.3993 171.452 34.502C171.238 34.5953 171.032 34.726 170.836 34.894C170.65 35.0527 170.486 35.2393 170.346 35.454C170.253 35.5847 170.16 35.6687 170.066 35.706C169.973 35.7433 169.884 35.762 169.8 35.762C169.623 35.762 169.46 35.7013 169.31 35.58C169.17 35.4493 169.1 35.3 169.1 35.132C169.1 35.0013 169.142 34.8753 169.226 34.754C169.31 34.6327 169.418 34.5067 169.548 34.376C169.754 34.124 170.001 33.9 170.29 33.704C170.589 33.4987 170.902 33.34 171.228 33.228C171.555 33.116 171.877 33.06 172.194 33.06C172.81 33.06 173.342 33.1813 173.79 33.424C174.248 33.6667 174.598 34.0073 174.84 34.446C175.092 34.8847 175.218 35.4027 175.218 36C175.218 36.504 175.064 37.064 174.756 37.68C174.458 38.2867 174.038 38.884 173.496 39.472L171.326 41.838L171.172 41.698H174.798ZM177.675 41.208C177.749 41.208 177.829 41.222 177.913 41.25C177.997 41.2687 178.09 41.3153 178.193 41.39C178.361 41.5393 178.561 41.6653 178.795 41.768C179.037 41.8613 179.313 41.908 179.621 41.908C179.966 41.908 180.288 41.8287 180.587 41.67C180.885 41.502 181.128 41.2687 181.315 40.97C181.501 40.6713 181.595 40.3167 181.595 39.906C181.595 39.486 181.506 39.1453 181.329 38.884C181.151 38.6133 180.923 38.4127 180.643 38.282C180.363 38.142 180.069 38.072 179.761 38.072C179.583 38.072 179.434 38.0907 179.313 38.128C179.191 38.156 179.075 38.1887 178.963 38.226C178.851 38.254 178.729 38.268 178.599 38.268C178.421 38.268 178.281 38.2073 178.179 38.086C178.076 37.9553 178.025 37.8013 178.025 37.624C178.025 37.512 178.048 37.414 178.095 37.33C178.141 37.246 178.207 37.1527 178.291 37.05L180.881 34.278L181.189 34.558H177.479C177.292 34.558 177.133 34.4973 177.003 34.376C176.881 34.2453 176.821 34.0867 176.821 33.9C176.821 33.7227 176.881 33.5733 177.003 33.452C177.133 33.3307 177.292 33.27 177.479 33.27H181.903C182.145 33.27 182.323 33.34 182.435 33.48C182.556 33.62 182.617 33.7833 182.617 33.97C182.617 34.0727 182.589 34.1707 182.533 34.264C182.486 34.3573 182.425 34.446 182.351 34.53L179.747 37.33L179.397 36.952C179.471 36.9147 179.597 36.8773 179.775 36.84C179.952 36.8027 180.097 36.784 180.209 36.784C180.741 36.784 181.217 36.9193 181.637 37.19C182.066 37.4607 182.397 37.8247 182.631 38.282C182.873 38.73 182.995 39.2387 182.995 39.808C182.995 40.4893 182.841 41.082 182.533 41.586C182.225 42.0807 181.795 42.4633 181.245 42.734C180.703 43.0047 180.078 43.14 179.369 43.14C179.014 43.14 178.659 43.0933 178.305 43C177.959 42.8973 177.661 42.7527 177.409 42.566C177.25 42.4727 177.143 42.3747 177.087 42.272C177.031 42.16 177.003 42.0527 177.003 41.95C177.003 41.7727 177.063 41.6047 177.185 41.446C177.315 41.2873 177.479 41.208 177.675 41.208Z" fill="white"/>
<path opacity="0.5" d="M209.677 22.11C209.135 22.11 208.658 22.0293 208.247 21.868C207.837 21.7067 207.441 21.45 207.059 21.098C207.008 21.0467 206.964 20.9917 206.927 20.933C206.898 20.867 206.883 20.7973 206.883 20.724C206.883 20.6067 206.924 20.504 207.004 20.416C207.092 20.3207 207.199 20.273 207.323 20.273C207.426 20.273 207.518 20.3133 207.598 20.394C207.884 20.6727 208.192 20.8853 208.522 21.032C208.86 21.1787 209.237 21.252 209.655 21.252C209.978 21.252 210.268 21.2007 210.524 21.098C210.788 20.9953 210.997 20.8523 211.151 20.669C211.305 20.4857 211.382 20.273 211.382 20.031C211.375 19.7377 211.287 19.4957 211.118 19.305C210.957 19.1143 210.73 18.9567 210.436 18.832C210.15 18.7 209.817 18.59 209.435 18.502C209.098 18.4213 208.786 18.3223 208.5 18.205C208.222 18.0877 207.98 17.9447 207.774 17.776C207.569 17.6 207.408 17.391 207.29 17.149C207.18 16.8997 207.125 16.61 207.125 16.28C207.125 15.862 207.235 15.4953 207.455 15.18C207.675 14.8647 207.98 14.6227 208.368 14.454C208.757 14.278 209.204 14.19 209.71 14.19C210.158 14.19 210.579 14.2633 210.975 14.41C211.379 14.5567 211.701 14.7583 211.943 15.015C212.09 15.1543 212.163 15.29 212.163 15.422C212.163 15.532 212.116 15.6347 212.02 15.73C211.932 15.818 211.83 15.862 211.712 15.862C211.632 15.862 211.558 15.8327 211.492 15.774C211.368 15.6347 211.21 15.51 211.019 15.4C210.829 15.29 210.62 15.202 210.392 15.136C210.165 15.07 209.938 15.037 209.71 15.037C209.373 15.037 209.076 15.0883 208.819 15.191C208.563 15.2863 208.361 15.4257 208.214 15.609C208.075 15.785 208.005 15.9977 208.005 16.247C208.005 16.5257 208.086 16.7567 208.247 16.94C208.409 17.116 208.625 17.2627 208.896 17.38C209.168 17.49 209.468 17.589 209.798 17.677C210.158 17.765 210.488 17.8677 210.788 17.985C211.096 18.095 211.36 18.2343 211.58 18.403C211.8 18.5717 211.969 18.788 212.086 19.052C212.211 19.3087 212.273 19.6277 212.273 20.009C212.273 20.4123 212.16 20.7717 211.932 21.087C211.705 21.4023 211.393 21.6517 210.997 21.835C210.609 22.011 210.169 22.1027 209.677 22.11ZM218.282 16.258C218.406 16.258 218.509 16.302 218.59 16.39C218.678 16.4707 218.722 16.5733 218.722 16.698V21.549C218.722 21.6737 218.678 21.78 218.59 21.868C218.509 21.956 218.406 22 218.282 22C218.15 22 218.043 21.956 217.963 21.868C217.882 21.78 217.842 21.6737 217.842 21.549V20.504L218.051 20.482C218.051 20.6433 217.996 20.8193 217.886 21.01C217.776 21.2007 217.625 21.3803 217.435 21.549C217.244 21.7103 217.017 21.846 216.753 21.956C216.496 22.0587 216.217 22.11 215.917 22.11C215.418 22.11 214.971 21.9817 214.575 21.725C214.179 21.461 213.863 21.1053 213.629 20.658C213.401 20.2107 213.288 19.701 213.288 19.129C213.288 18.5497 213.401 18.04 213.629 17.6C213.863 17.1527 214.179 16.8043 214.575 16.555C214.971 16.2983 215.411 16.17 215.895 16.17C216.21 16.17 216.503 16.2213 216.775 16.324C217.046 16.4267 217.281 16.566 217.479 16.742C217.684 16.918 217.842 17.1123 217.952 17.325C218.069 17.5377 218.128 17.7503 218.128 17.963L217.842 17.897V16.698C217.842 16.5733 217.882 16.4707 217.963 16.39C218.043 16.302 218.15 16.258 218.282 16.258ZM216.016 21.296C216.382 21.296 216.705 21.2007 216.984 21.01C217.27 20.8193 217.49 20.5627 217.644 20.24C217.805 19.91 217.886 19.5397 217.886 19.129C217.886 18.7257 217.805 18.3627 217.644 18.04C217.49 17.71 217.27 17.4533 216.984 17.27C216.705 17.0793 216.382 16.984 216.016 16.984C215.656 16.984 215.334 17.0757 215.048 17.259C214.769 17.4423 214.549 17.6953 214.388 18.018C214.226 18.3407 214.146 18.711 214.146 19.129C214.146 19.5397 214.223 19.91 214.377 20.24C214.538 20.5627 214.758 20.8193 215.037 21.01C215.323 21.2007 215.649 21.296 216.016 21.296ZM220.133 16.346H222.718C222.835 16.346 222.93 16.3863 223.004 16.467C223.084 16.5477 223.125 16.643 223.125 16.753C223.125 16.8703 223.084 16.9693 223.004 17.05C222.93 17.1233 222.835 17.16 222.718 17.16H220.133C220.023 17.16 219.927 17.1197 219.847 17.039C219.766 16.9583 219.726 16.8593 219.726 16.742C219.726 16.632 219.766 16.5403 219.847 16.467C219.927 16.3863 220.023 16.346 220.133 16.346ZM221.288 14.85C221.412 14.85 221.515 14.894 221.596 14.982C221.676 15.0627 221.717 15.1653 221.717 15.29V20.603C221.717 20.779 221.742 20.911 221.794 20.999C221.845 21.087 221.911 21.1493 221.992 21.186C222.08 21.2153 222.164 21.23 222.245 21.23C222.318 21.23 222.38 21.219 222.432 21.197C222.49 21.1677 222.556 21.153 222.63 21.153C222.703 21.153 222.769 21.1897 222.828 21.263C222.894 21.329 222.927 21.417 222.927 21.527C222.927 21.659 222.85 21.7727 222.696 21.868C222.542 21.956 222.369 22 222.179 22C222.076 22 221.948 21.9927 221.794 21.978C221.647 21.9633 221.5 21.9157 221.354 21.835C221.207 21.7543 221.082 21.6223 220.98 21.439C220.884 21.2483 220.837 20.9843 220.837 20.647V15.29C220.837 15.1653 220.881 15.0627 220.969 14.982C221.057 14.894 221.163 14.85 221.288 14.85Z" fill="black"/>
<path opacity="0.7" d="M213.586 41.698C213.773 41.698 213.927 41.7633 214.048 41.894C214.179 42.0153 214.244 42.1693 214.244 42.356C214.244 42.5427 214.179 42.6967 214.048 42.818C213.927 42.9393 213.773 43 213.586 43H208.672C208.467 43 208.304 42.9393 208.182 42.818C208.061 42.6967 208 42.5333 208 42.328C208 42.1413 208.066 41.9733 208.196 41.824L211.318 38.45C211.72 38.0207 212.028 37.596 212.242 37.176C212.466 36.756 212.578 36.3873 212.578 36.07C212.578 35.5567 212.424 35.1413 212.116 34.824C211.808 34.5067 211.402 34.348 210.898 34.348C210.684 34.348 210.464 34.3993 210.24 34.502C210.026 34.5953 209.82 34.726 209.624 34.894C209.438 35.0527 209.274 35.2393 209.134 35.454C209.041 35.5847 208.948 35.6687 208.854 35.706C208.761 35.7433 208.672 35.762 208.588 35.762C208.411 35.762 208.248 35.7013 208.098 35.58C207.958 35.4493 207.888 35.3 207.888 35.132C207.888 35.0013 207.93 34.8753 208.014 34.754C208.098 34.6327 208.206 34.5067 208.336 34.376C208.542 34.124 208.789 33.9 209.078 33.704C209.377 33.4987 209.69 33.34 210.016 33.228C210.343 33.116 210.665 33.06 210.982 33.06C211.598 33.06 212.13 33.1813 212.578 33.424C213.036 33.6667 213.386 34.0073 213.628 34.446C213.88 34.8847 214.006 35.4027 214.006 36C214.006 36.504 213.852 37.064 213.544 37.68C213.246 38.2867 212.826 38.884 212.284 39.472L210.114 41.838L209.96 41.698H213.586ZM220.286 43C220.09 43 219.927 42.9347 219.796 42.804C219.666 42.664 219.6 42.4913 219.6 42.286V35.16L219.852 35.244L216.828 39.108L216.758 38.926H221.854C222.041 38.926 222.195 38.9913 222.316 39.122C222.447 39.2433 222.512 39.3973 222.512 39.584C222.512 39.7613 222.447 39.9107 222.316 40.032C222.195 40.1533 222.041 40.214 221.854 40.214H215.792C215.624 40.214 215.466 40.1487 215.316 40.018C215.167 39.878 215.092 39.7147 215.092 39.528C215.092 39.3507 215.153 39.192 215.274 39.052L219.726 33.48C219.792 33.3867 219.876 33.3167 219.978 33.27C220.081 33.2233 220.188 33.2 220.3 33.2C220.506 33.2 220.674 33.27 220.804 33.41C220.935 33.5407 221 33.7087 221 33.914V42.286C221 42.4913 220.93 42.664 220.79 42.804C220.65 42.9347 220.482 43 220.286 43Z" fill="black"/>
<path opacity="0.5" d="M247.678 22.11C247.136 22.11 246.659 22.0293 246.248 21.868C245.838 21.7067 245.442 21.45 245.06 21.098C245.009 21.0467 244.965 20.9917 244.928 20.933C244.899 20.867 244.884 20.7973 244.884 20.724C244.884 20.6067 244.925 20.504 245.005 20.416C245.093 20.3207 245.2 20.273 245.324 20.273C245.427 20.273 245.519 20.3133 245.599 20.394C245.885 20.6727 246.193 20.8853 246.523 21.032C246.861 21.1787 247.238 21.252 247.656 21.252C247.979 21.252 248.269 21.2007 248.525 21.098C248.789 20.9953 248.998 20.8523 249.152 20.669C249.306 20.4857 249.383 20.273 249.383 20.031C249.376 19.7377 249.288 19.4957 249.119 19.305C248.958 19.1143 248.731 18.9567 248.437 18.832C248.151 18.7 247.818 18.59 247.436 18.502C247.099 18.4213 246.787 18.3223 246.501 18.205C246.223 18.0877 245.981 17.9447 245.775 17.776C245.57 17.6 245.409 17.391 245.291 17.149C245.181 16.8997 245.126 16.61 245.126 16.28C245.126 15.862 245.236 15.4953 245.456 15.18C245.676 14.8647 245.981 14.6227 246.369 14.454C246.758 14.278 247.205 14.19 247.711 14.19C248.159 14.19 248.58 14.2633 248.976 14.41C249.38 14.5567 249.702 14.7583 249.944 15.015C250.091 15.1543 250.164 15.29 250.164 15.422C250.164 15.532 250.117 15.6347 250.021 15.73C249.933 15.818 249.831 15.862 249.713 15.862C249.633 15.862 249.559 15.8327 249.493 15.774C249.369 15.6347 249.211 15.51 249.02 15.4C248.83 15.29 248.621 15.202 248.393 15.136C248.166 15.07 247.939 15.037 247.711 15.037C247.374 15.037 247.077 15.0883 246.82 15.191C246.564 15.2863 246.362 15.4257 246.215 15.609C246.076 15.785 246.006 15.9977 246.006 16.247C246.006 16.5257 246.087 16.7567 246.248 16.94C246.41 17.116 246.626 17.2627 246.897 17.38C247.169 17.49 247.469 17.589 247.799 17.677C248.159 17.765 248.489 17.8677 248.789 17.985C249.097 18.095 249.361 18.2343 249.581 18.403C249.801 18.5717 249.97 18.788 250.087 19.052C250.212 19.3087 250.274 19.6277 250.274 20.009C250.274 20.4123 250.161 20.7717 249.933 21.087C249.706 21.4023 249.394 21.6517 248.998 21.835C248.61 22.011 248.17 22.1027 247.678 22.11ZM255.854 16.313C255.986 16.313 256.092 16.357 256.173 16.445C256.253 16.5257 256.294 16.6283 256.294 16.753V19.756C256.294 20.4967 256.085 21.0723 255.667 21.483C255.256 21.8863 254.68 22.088 253.94 22.088C253.206 22.088 252.631 21.8863 252.213 21.483C251.802 21.0723 251.597 20.4967 251.597 19.756V16.753C251.597 16.6283 251.637 16.5257 251.718 16.445C251.806 16.357 251.912 16.313 252.037 16.313C252.169 16.313 252.275 16.357 252.356 16.445C252.436 16.5257 252.477 16.6283 252.477 16.753V19.756C252.477 20.2547 252.605 20.6323 252.862 20.889C253.118 21.1457 253.478 21.274 253.94 21.274C254.416 21.274 254.779 21.1457 255.029 20.889C255.285 20.6323 255.414 20.2547 255.414 19.756V16.753C255.414 16.6283 255.454 16.5257 255.535 16.445C255.623 16.357 255.729 16.313 255.854 16.313ZM260.751 16.17C261.25 16.17 261.642 16.2727 261.928 16.478C262.214 16.6833 262.416 16.9583 262.533 17.303C262.658 17.6477 262.72 18.0327 262.72 18.458V21.549C262.72 21.6737 262.676 21.78 262.588 21.868C262.507 21.956 262.405 22 262.28 22C262.155 22 262.049 21.956 261.961 21.868C261.88 21.78 261.84 21.6737 261.84 21.549V18.48C261.84 18.2013 261.796 17.952 261.708 17.732C261.627 17.5047 261.488 17.325 261.29 17.193C261.099 17.0537 260.835 16.984 260.498 16.984C260.19 16.984 259.908 17.0537 259.651 17.193C259.394 17.325 259.189 17.5047 259.035 17.732C258.881 17.952 258.804 18.2013 258.804 18.48V21.549C258.804 21.6737 258.76 21.78 258.672 21.868C258.591 21.956 258.489 22 258.364 22C258.239 22 258.133 21.956 258.045 21.868C257.964 21.78 257.924 21.6737 257.924 21.549V16.753C257.924 16.6283 257.964 16.5257 258.045 16.445C258.133 16.357 258.239 16.313 258.364 16.313C258.496 16.313 258.602 16.357 258.683 16.445C258.764 16.5257 258.804 16.6283 258.804 16.753V17.534L258.584 17.776C258.621 17.5853 258.705 17.3947 258.837 17.204C258.969 17.006 259.134 16.83 259.332 16.676C259.53 16.522 259.75 16.401 259.992 16.313C260.234 16.2177 260.487 16.17 260.751 16.17Z" fill="black"/>
<path opacity="0.7" d="M252.566 41.698C252.753 41.698 252.907 41.7633 253.028 41.894C253.159 42.0153 253.224 42.1693 253.224 42.356C253.224 42.5427 253.159 42.6967 253.028 42.818C252.907 42.9393 252.753 43 252.566 43H247.652C247.447 43 247.283 42.9393 247.162 42.818C247.041 42.6967 246.98 42.5333 246.98 42.328C246.98 42.1413 247.045 41.9733 247.176 41.824L250.298 38.45C250.699 38.0207 251.007 37.596 251.222 37.176C251.446 36.756 251.558 36.3873 251.558 36.07C251.558 35.5567 251.404 35.1413 251.096 34.824C250.788 34.5067 250.382 34.348 249.878 34.348C249.663 34.348 249.444 34.3993 249.22 34.502C249.005 34.5953 248.8 34.726 248.604 34.894C248.417 35.0527 248.254 35.2393 248.114 35.454C248.021 35.5847 247.927 35.6687 247.834 35.706C247.741 35.7433 247.652 35.762 247.568 35.762C247.391 35.762 247.227 35.7013 247.078 35.58C246.938 35.4493 246.868 35.3 246.868 35.132C246.868 35.0013 246.91 34.8753 246.994 34.754C247.078 34.6327 247.185 34.5067 247.316 34.376C247.521 34.124 247.769 33.9 248.058 33.704C248.357 33.4987 248.669 33.34 248.996 33.228C249.323 33.116 249.645 33.06 249.962 33.06C250.578 33.06 251.11 33.1813 251.558 33.424C252.015 33.6667 252.365 34.0073 252.608 34.446C252.86 34.8847 252.986 35.4027 252.986 36C252.986 36.504 252.832 37.064 252.524 37.68C252.225 38.2867 251.805 38.884 251.264 39.472L249.094 41.838L248.94 41.698H252.566ZM257.332 43.098C256.968 43.098 256.59 43.042 256.198 42.93C255.816 42.818 255.489 42.65 255.218 42.426C255.116 42.342 255.036 42.2347 254.98 42.104C254.924 41.9733 254.896 41.8473 254.896 41.726C254.896 41.5953 254.952 41.4693 255.064 41.348C255.186 41.2173 255.349 41.152 255.554 41.152C255.704 41.152 255.876 41.2267 256.072 41.376C256.259 41.4973 256.455 41.6 256.66 41.684C256.875 41.768 257.094 41.81 257.318 41.81C257.804 41.81 258.224 41.7213 258.578 41.544C258.933 41.3667 259.204 41.1193 259.39 40.802C259.586 40.4753 259.684 40.0973 259.684 39.668C259.684 39.2667 259.596 38.926 259.418 38.646C259.241 38.3567 258.998 38.1327 258.69 37.974C258.392 37.8153 258.056 37.736 257.682 37.736C257.374 37.736 257.104 37.7873 256.87 37.89C256.637 37.9833 256.427 38.0813 256.24 38.184C256.054 38.2773 255.881 38.324 255.722 38.324C255.48 38.324 255.298 38.2727 255.176 38.17C255.055 38.058 254.976 37.9273 254.938 37.778C254.91 37.6193 254.906 37.4747 254.924 37.344L255.414 33.83C255.442 33.6713 255.517 33.5407 255.638 33.438C255.769 33.326 255.928 33.27 256.114 33.27H260.216C260.403 33.27 260.557 33.3353 260.678 33.466C260.809 33.5873 260.874 33.7413 260.874 33.928C260.874 34.1147 260.809 34.2687 260.678 34.39C260.557 34.5113 260.403 34.572 260.216 34.572H256.464L256.618 34.446L256.17 37.456L255.96 37.036C256.044 36.9427 256.184 36.854 256.38 36.77C256.586 36.6767 256.814 36.602 257.066 36.546C257.328 36.4807 257.589 36.448 257.85 36.448C258.466 36.448 259.017 36.588 259.502 36.868C259.997 37.1387 260.384 37.5167 260.664 38.002C260.944 38.4873 261.084 39.038 261.084 39.654C261.084 40.3447 260.93 40.9513 260.622 41.474C260.314 41.9873 259.88 42.3887 259.32 42.678C258.76 42.958 258.098 43.098 257.332 43.098Z" fill="black"/>
</svg>
