<svg width="40" height="40" viewBox="0 0 40 40" fill="none" xmlns="http://www.w3.org/2000/svg">
<g clip-path="url(#clip0_145_728)">
<path d="M14.207 32.7461C14.7812 32.7461 15.1797 32.4414 15.8945 31.8086L19.9375 28.2109H27.4609C30.9531 28.2109 32.8281 26.2773 32.8281 22.8438V13.8672C32.8281 10.4336 30.9531 8.5 27.4609 8.5H12.3672C8.875 8.5 7 10.4219 7 13.8672V22.8438C7 26.2891 8.875 28.2109 12.3672 28.2109H12.9297V31.2578C12.9297 32.1602 13.3867 32.7461 14.207 32.7461ZM14.6875 30.6016V27.2031C14.6875 26.5703 14.4414 26.3242 13.8086 26.3242H12.3672C10 26.3242 8.88672 25.1172 8.88672 22.832V13.8672C8.88672 11.582 10 10.3867 12.3672 10.3867H27.4609C29.8164 10.3867 30.9414 11.582 30.9414 13.8672V22.832C30.9414 25.1172 29.8164 26.3242 27.4609 26.3242H19.8672C19.2109 26.3242 18.8828 26.418 18.4375 26.875L14.6875 30.6016ZM13.8789 15.1211H25.8086C26.1836 15.1211 26.4766 14.8281 26.4766 14.4414C26.4766 14.0781 26.1836 13.7734 25.8086 13.7734H13.8789C13.5039 13.7734 13.1992 14.0781 13.1992 14.4414C13.1992 14.8281 13.5039 15.1211 13.8789 15.1211ZM13.8789 18.9414H25.8086C26.1836 18.9414 26.4766 18.6367 26.4766 18.25C26.4766 17.8867 26.1836 17.582 25.8086 17.582H13.8789C13.5039 17.582 13.1992 17.8867 13.1992 18.25C13.1992 18.6367 13.5039 18.9414 13.8789 18.9414ZM13.8789 22.75H21.6367C22.0117 22.75 22.3047 22.457 22.3047 22.082C22.3047 21.6953 22.0117 21.3906 21.6367 21.3906H13.8789C13.5039 21.3906 13.1992 21.6953 13.1992 22.082C13.1992 22.457 13.5039 22.75 13.8789 22.75Z" fill="#776EA5"/>
</g>
<defs>
<clipPath id="clip0_145_728">
<rect width="25.8281" height="25.7461" fill="white" transform="translate(7 7)"/>
</clipPath>
</defs>
</svg>
