<svg width="24" height="24" viewBox="0 0 24 24" fill="none" xmlns="http://www.w3.org/2000/svg">
<g clip-path="url(#clip0_145_785)">
<path d="M15.4352 20.5547C16.7611 20.5547 17.8459 19.4698 17.8459 18.144C17.8459 16.8181 16.7611 15.7333 15.4352 15.7333C14.1093 15.7333 13.0145 16.8181 13.0145 18.144C13.0145 19.4698 14.1093 20.5547 15.4352 20.5547ZM15.4352 19.3192C14.7723 19.3192 14.26 18.7969 14.26 18.144C14.26 17.471 14.7723 16.9688 15.4352 16.9688C16.0981 16.9688 16.6104 17.471 16.6104 18.144C16.6104 18.7969 16.0981 19.3192 15.4352 19.3192ZM13.8381 17.3304H2.5178C2.0658 17.3304 1.71423 17.6919 1.71423 18.144C1.71423 18.596 2.0658 18.9476 2.5178 18.9476H13.8381V17.3304ZM21.1807 17.3304H17.183V18.9476H21.1807C21.5926 18.9476 21.9542 18.596 21.9542 18.144C21.9542 17.6919 21.5926 17.3304 21.1807 17.3304ZM8.3437 14.4274C9.66959 14.4274 10.7544 13.3326 10.7544 12.0067C10.7544 10.6808 9.66959 9.59597 8.3437 9.59597C7.0178 9.59597 5.93299 10.6808 5.93299 12.0067C5.93299 13.3326 7.0178 14.4274 8.3437 14.4274ZM8.3437 13.1819C7.6908 13.1819 7.16847 12.6596 7.16847 12.0067C7.16847 11.3437 7.6908 10.8315 8.3437 10.8315C9.00664 10.8315 9.51892 11.3437 9.51892 12.0067C9.51892 12.6596 9.00664 13.1819 8.3437 13.1819ZM2.47763 11.1931C2.0658 11.1931 1.71423 11.5547 1.71423 12.0067C1.71423 12.4587 2.0658 12.8102 2.47763 12.8102H6.61602V11.1931H2.47763ZM21.1406 11.1931H9.9408V12.8102H21.1406C21.5926 12.8102 21.9542 12.4587 21.9542 12.0067C21.9542 11.5547 21.5926 11.1931 21.1406 11.1931ZM15.4352 8.28012C16.7611 8.28012 17.8459 7.1953 17.8459 5.86941C17.8459 4.54351 16.7611 3.44865 15.4352 3.44865C14.1093 3.44865 13.0145 4.54351 13.0145 5.86941C13.0145 7.1953 14.1093 8.28012 15.4352 8.28012ZM15.4352 7.04463C14.7723 7.04463 14.26 6.52231 14.26 5.85936C14.26 5.19641 14.7723 4.68413 15.4352 4.68413C16.0981 4.68413 16.6104 5.19641 16.6104 5.85936C16.6104 6.52231 16.0981 7.04463 15.4352 7.04463ZM13.8883 5.06584H2.5178C2.0658 5.06584 1.71423 5.41739 1.71423 5.86941C1.71423 6.32141 2.0658 6.68303 2.5178 6.68303H13.8883V5.06584ZM21.1807 5.06584H17.0423V6.68303H21.1807C21.5926 6.68303 21.9542 6.32141 21.9542 5.86941C21.9542 5.41739 21.5926 5.06584 21.1807 5.06584Z" fill="white"/>
</g>
<defs>
<clipPath id="clip0_145_785">
<rect width="20.24" height="17.1261" fill="white" transform="translate(1.71423 3.42857)"/>
</clipPath>
</defs>
</svg>
