<svg width="24" height="24" viewBox="0 0 24 24" fill="none" xmlns="http://www.w3.org/2000/svg">
<g clip-path="url(#clip0_145_753)">
<path d="M0.979614 18.2564C0.979614 18.6524 1.30678 18.971 1.69422 18.971H22.5125C22.9085 18.971 23.227 18.6524 23.227 18.2564C23.227 17.8604 22.9085 17.5418 22.5125 17.5418H22.0476V5.93592C22.0476 5.16966 21.5223 4.65308 20.7216 4.65308H3.45921C2.66712 4.65308 2.13331 5.16966 2.13331 5.93592V17.5418H1.69422C1.30678 17.5418 0.979614 17.8604 0.979614 18.2564ZM3.52808 11.2481V6.28031C3.52808 6.14255 3.61418 6.03924 3.74333 6.03924H11.5265V11.2481H3.52808ZM12.6543 11.2481V6.03924H20.4461C20.5753 6.03924 20.6614 6.14255 20.6614 6.28031V11.2481H12.6543ZM3.52808 17.5418V12.376H11.5265V17.5418H3.52808ZM12.6543 17.5418V12.376H20.6614V17.5418H12.6543Z" fill="white"/>
</g>
<defs>
<clipPath id="clip0_145_753">
<rect width="22.2474" height="14.3351" fill="white" transform="translate(0.979614 4.65308)"/>
</clipPath>
</defs>
</svg>
