<svg width="24" height="24" viewBox="0 0 24 24" fill="none" xmlns="http://www.w3.org/2000/svg">
<path d="M7.41959 6.37501H21.1406C21.5926 6.37501 21.9542 6.02345 21.9542 5.57144C21.9542 5.10939 21.5926 4.75783 21.1406 4.75783H7.41959C6.95754 4.75783 6.60597 5.10939 6.60597 5.57144C6.60597 6.02345 6.95754 6.37501 7.41959 6.37501ZM7.41959 12.452H21.1406C21.5926 12.452 21.9542 12.0904 21.9542 11.6384C21.9542 11.1864 21.5926 10.8348 21.1406 10.8348H7.41959C6.95754 10.8348 6.60597 11.1864 6.60597 11.6384C6.60597 12.0904 6.95754 12.452 7.41959 12.452ZM7.41959 18.519H21.1406C21.5926 18.519 21.9542 18.1674 21.9542 17.7154C21.9542 17.2534 21.5926 16.9018 21.1406 16.9018H7.41959C6.95754 16.9018 6.60597 17.2534 6.60597 17.7154C6.60597 18.1674 6.95754 18.519 7.41959 18.519ZM2.97986 6.82702C3.68299 6.82702 4.24548 6.26452 4.24548 5.57144C4.24548 4.86832 3.68299 4.30582 2.97986 4.30582C2.27673 4.30582 1.71423 4.86832 1.71423 5.57144C1.71423 6.26452 2.27673 6.82702 2.97986 6.82702ZM2.97986 12.904C3.68299 12.904 4.24548 12.3415 4.24548 11.6384C4.24548 10.9353 3.68299 10.3728 2.97986 10.3728C2.27673 10.3728 1.71423 10.9353 1.71423 11.6384C1.71423 12.3415 2.27673 12.904 2.97986 12.904ZM2.97986 18.981C3.68299 18.981 4.24548 18.4085 4.24548 17.7154C4.24548 17.0123 3.68299 16.4498 2.97986 16.4498C2.27673 16.4498 1.71423 17.0123 1.71423 17.7154C1.71423 18.4085 2.27673 18.981 2.97986 18.981Z" fill="white"/>
</svg>
