<svg width="22" height="22" viewBox="0 0 22 22" fill="none" xmlns="http://www.w3.org/2000/svg">
<g clip-path="url(#clip0_145_787)">
<path d="M7.77197 5.77C7.78408 3.59497 7.88053 2.41706 8.64891 1.64868C9.52762 0.769997 10.9418 0.769997 13.7702 0.769997H14.7702C17.5986 0.769997 19.0129 0.769997 19.8915 1.64868C20.7702 2.52736 20.7702 3.94157 20.7702 6.77V14.77C20.7702 17.5984 20.7702 19.0126 19.8915 19.8913C19.0129 20.77 17.5986 20.77 14.7702 20.77H13.7702C10.9418 20.77 9.52762 20.77 8.64891 19.8913C7.88053 19.1229 7.78408 17.945 7.77197 15.77" stroke="white" stroke-width="1.5" stroke-linecap="round"/>
<path d="M14.2745 10.7706H1.27454M1.27454 10.7706L4.77454 7.77057M1.27454 10.7706L4.77454 13.7706" stroke="white" stroke-width="1.5" stroke-linecap="round" stroke-linejoin="round"/>
</g>
<defs>
<clipPath id="clip0_145_787">
<rect width="21.54" height="21.54" fill="white"/>
</clipPath>
</defs>
</svg>
