<svg width="24" height="24" viewBox="0 0 24 24" fill="none" xmlns="http://www.w3.org/2000/svg">
<g clip-path="url(#clip0_145_765)">
<path d="M13.2714 23.4078C16.7325 23.4078 18.7988 22.1853 18.7988 20.1534V15.4267C20.2882 14.1524 21.1665 12.0775 21.1665 9.78731C21.1665 4.49234 17.7312 0.979584 12.5912 0.979584C7.47704 0.979584 4.06759 4.42346 4.06759 9.58931C4.06759 9.9078 4.0762 10.1661 4.10204 10.4072L2.90529 12.551C2.59534 13.1106 2.44897 13.6359 2.44897 14.1266C2.44897 15.0823 3.05165 15.8485 4.06759 16.0724V18.0182C4.06759 19.6454 5.19547 20.4289 6.67634 20.2739L8.43271 20.0845L7.82142 19.4388V20.1534C7.82142 22.1853 9.85329 23.4078 13.2714 23.4078ZM13.2714 22.0217C10.6884 22.0217 9.1301 21.2037 9.1301 19.8779V18.7844C9.1301 18.6639 9.06122 18.6122 8.94069 18.6208L6.49553 18.8963C5.83259 18.9653 5.45375 18.6725 5.45375 17.9149V15.0565C5.45375 14.9704 5.38488 14.91 5.28156 14.91H4.82525C4.20535 14.91 3.85236 14.6001 3.85236 14.1008C3.85236 13.8511 3.93845 13.5498 4.11065 13.2398L5.53124 10.6914C5.47098 10.3125 5.44514 9.93367 5.44514 9.57205C5.44514 5.24138 8.29496 2.36575 12.5912 2.36575C16.8961 2.36575 19.7803 5.32748 19.7803 9.78731C19.7803 11.9311 18.8849 13.7908 17.4126 14.7379V19.8779C17.4126 21.2037 15.8543 22.0217 13.2714 22.0217ZM6.85714 8.12563C6.85714 9.78731 8.01084 10.9065 9.71555 10.9065C11.3945 10.9065 12.5396 9.9078 12.5396 8.40976C12.5396 7.78985 12.3243 7.26466 11.9282 6.9375C11.7561 6.79113 11.6355 6.73947 11.4719 6.73947C11.2222 6.73947 11.0328 6.90305 11.0328 7.14412C11.0328 7.41103 11.2051 7.49712 11.3772 7.66071C11.5494 7.8329 11.6527 8.08258 11.6527 8.3925C11.6527 9.36545 10.8865 10.0112 9.72416 10.0112C8.53603 10.0112 7.75255 9.26208 7.75255 8.12563C7.75255 7.43685 8.11416 6.79974 8.70822 6.46396L8.26052 5.66326C7.40816 6.16262 6.85714 7.1183 6.85714 8.12563ZM8.04528 5.81823C8.04528 6.88583 8.80293 7.60905 9.91361 7.60905C10.1461 7.60905 10.3613 7.40242 10.3613 7.16134C10.3613 6.92027 10.1547 6.71364 9.91361 6.71364C9.32812 6.71364 8.94069 6.36064 8.94069 5.81823C8.94069 5.24999 9.41422 4.83673 10.0686 4.83673C10.4216 4.83673 10.7832 4.96587 11.0759 5.18972L11.6011 4.4579C11.1534 4.12212 10.6282 3.94132 10.0772 3.94132C8.92346 3.94132 8.04528 4.74202 8.04528 5.81823ZM10.4043 5.6977C10.3957 5.9646 10.5851 6.17123 10.852 6.17123C11.1104 6.17123 11.2825 5.99903 11.2912 5.73213C11.3342 4.92283 11.911 4.36319 12.7118 4.35458C13.1853 4.35458 13.6071 4.60426 13.7708 5.00031C13.8396 5.12946 13.9774 5.12946 14.1754 5.07779C14.2787 5.04336 14.3992 5.03475 14.5198 5.03475C15.329 5.03475 15.9576 5.66326 15.9576 6.4984C15.9576 8.52166 13.0045 8.17729 13.0045 10.3297C13.0045 11.3026 13.7879 11.9914 14.89 11.9914C14.9675 11.9914 15.0449 11.9914 15.1396 11.9914C15.2861 12.8696 15.8543 13.4722 16.5602 13.4722C17.5762 13.4722 18.2994 12.31 18.2994 10.7C18.2994 10.0714 18.2564 9.65816 18.222 9.26208L17.3093 9.5204C17.3524 9.9078 17.404 10.2436 17.404 10.6827C17.404 11.7417 17.0252 12.5769 16.5602 12.5769C16.1556 12.5769 15.8887 12.0775 15.8887 11.3543C15.8887 11.2337 15.8026 11.1735 15.6907 11.1735C15.5529 11.1735 15.3894 11.1821 15.2861 11.1821C14.3648 11.1821 13.9085 10.8894 13.9085 10.3211C13.9085 8.75411 16.8616 9.20184 16.8616 6.4984C16.8616 5.15528 15.8801 4.13073 14.6059 4.13073C14.5112 4.13073 14.3992 4.13934 14.2873 4.16517C13.9085 3.72608 13.3316 3.46779 12.7118 3.46779C11.4117 3.46779 10.456 4.38042 10.4043 5.6977ZM15.639 10.037C15.639 10.278 15.8198 10.4675 16.0695 10.4933C17.6365 10.588 18.7041 9.64956 18.7041 8.16868C18.7041 6.90305 17.7828 5.94738 16.4225 5.81823L16.2847 6.72225C17.1974 6.6792 17.8086 7.26466 17.8086 8.16868C17.8086 9.09854 17.1285 9.67535 16.0867 9.59791C15.8543 9.58065 15.639 9.79591 15.639 10.037ZM13.4866 10.5277C13.2197 10.631 12.8753 10.6914 12.5567 10.6914C11.7561 10.6914 10.9984 10.3469 10.7918 9.88202L10.0427 10.5019C10.5421 11.1821 11.4547 11.5867 12.4879 11.5867C12.9098 11.5867 13.3661 11.5179 13.7794 11.3801L13.4866 10.5277ZM11.8766 7.42824L12.1693 8.28921C13.3402 8.09119 13.9602 7.3852 13.9602 6.22289C13.9602 5.99042 13.7449 5.77518 13.5038 5.77518C13.2628 5.77518 13.0647 5.98181 13.0647 6.2315C13.0647 6.98915 12.7031 7.34215 11.8766 7.42824Z" fill="white"/>
</g>
<defs>
<clipPath id="clip0_145_765">
<rect width="18.7175" height="22.4971" fill="white" transform="translate(2.44897 0.979584)"/>
</clipPath>
</defs>
</svg>
