<svg width="326" height="58" viewBox="0 0 326 58" fill="none" xmlns="http://www.w3.org/2000/svg">
<path fill-rule="evenodd" clip-rule="evenodd" d="M18.8964 34.8536C19.0917 35.0488 19.4083 35.0488 19.6036 34.8536C19.7988 34.6583 19.7988 34.3417 19.6036 34.1464L14.4571 29L19.6036 23.8536C19.7988 23.6583 19.7988 23.3417 19.6036 23.1464C19.4083 22.9512 19.0917 22.9512 18.8964 23.1464L13.3964 28.6464C13.2012 28.8417 13.2012 29.1583 13.3964 29.3536L18.8964 34.8536Z" fill="black" fill-opacity="0.4"/>
<path opacity="0.5" d="M36.3116 14.289C36.3776 14.289 36.4472 14.3073 36.5206 14.344C36.6012 14.3807 36.6636 14.4283 36.7076 14.487L39.6226 18.898L39.2376 18.887L42.1856 14.487C42.2809 14.3477 42.4056 14.2817 42.5596 14.289C42.6769 14.2963 42.7796 14.3403 42.8676 14.421C42.9556 14.5017 42.9996 14.608 42.9996 14.74V21.549C42.9996 21.6737 42.9556 21.78 42.8676 21.868C42.7796 21.956 42.6696 22 42.5376 22C42.4056 22 42.2956 21.956 42.2076 21.868C42.1196 21.78 42.0756 21.6737 42.0756 21.549V15.576L42.3506 15.631L39.7546 19.58C39.7106 19.6313 39.6556 19.6753 39.5896 19.712C39.5309 19.7487 39.4686 19.767 39.4026 19.767C39.3366 19.767 39.2706 19.7487 39.2046 19.712C39.1386 19.6753 39.0836 19.6313 39.0396 19.58L36.4766 15.631L36.7076 15.345V21.549C36.7076 21.6737 36.6672 21.78 36.5866 21.868C36.5059 21.956 36.4032 22 36.2786 22C36.1539 22 36.0512 21.956 35.9706 21.868C35.8972 21.78 35.8606 21.6737 35.8606 21.549V14.74C35.8606 14.6227 35.9009 14.52 35.9816 14.432C36.0696 14.3367 36.1796 14.289 36.3116 14.289ZM50.174 19.14C50.174 19.712 50.0457 20.2217 49.789 20.669C49.5397 21.1163 49.1987 21.4683 48.766 21.725C48.3407 21.9817 47.8603 22.11 47.325 22.11C46.7897 22.11 46.3057 21.9817 45.873 21.725C45.4403 21.4683 45.0957 21.1163 44.839 20.669C44.5897 20.2217 44.465 19.712 44.465 19.14C44.465 18.568 44.5897 18.0583 44.839 17.611C45.0957 17.1637 45.4403 16.8117 45.873 16.555C46.3057 16.2983 46.7897 16.17 47.325 16.17C47.8603 16.17 48.3407 16.2983 48.766 16.555C49.1987 16.8117 49.5397 17.1637 49.789 17.611C50.0457 18.0583 50.174 18.568 50.174 19.14ZM49.294 19.14C49.294 18.7147 49.206 18.3407 49.03 18.018C48.8613 17.6953 48.6267 17.4423 48.326 17.259C48.0327 17.0757 47.699 16.984 47.325 16.984C46.951 16.984 46.6137 17.0757 46.313 17.259C46.0197 17.4423 45.785 17.6953 45.609 18.018C45.433 18.3407 45.345 18.7147 45.345 19.14C45.345 19.558 45.433 19.9283 45.609 20.251C45.785 20.5737 46.0197 20.8303 46.313 21.021C46.6137 21.2043 46.951 21.296 47.325 21.296C47.699 21.296 48.0327 21.2043 48.326 21.021C48.6267 20.8303 48.8613 20.5737 49.03 20.251C49.206 19.9283 49.294 19.558 49.294 19.14ZM54.3246 16.17C54.8233 16.17 55.2156 16.2727 55.5016 16.478C55.7876 16.6833 55.9893 16.9583 56.1066 17.303C56.2313 17.6477 56.2936 18.0327 56.2936 18.458V21.549C56.2936 21.6737 56.2496 21.78 56.1616 21.868C56.0809 21.956 55.9783 22 55.8536 22C55.7289 22 55.6226 21.956 55.5346 21.868C55.4539 21.78 55.4136 21.6737 55.4136 21.549V18.48C55.4136 18.2013 55.3696 17.952 55.2816 17.732C55.2009 17.5047 55.0616 17.325 54.8636 17.193C54.6729 17.0537 54.4089 16.984 54.0716 16.984C53.7636 16.984 53.4813 17.0537 53.2246 17.193C52.9679 17.325 52.7626 17.5047 52.6086 17.732C52.4546 17.952 52.3776 18.2013 52.3776 18.48V21.549C52.3776 21.6737 52.3336 21.78 52.2456 21.868C52.1649 21.956 52.0623 22 51.9376 22C51.8129 22 51.7066 21.956 51.6186 21.868C51.5379 21.78 51.4976 21.6737 51.4976 21.549V16.753C51.4976 16.6283 51.5379 16.5257 51.6186 16.445C51.7066 16.357 51.8129 16.313 51.9376 16.313C52.0696 16.313 52.1759 16.357 52.2566 16.445C52.3373 16.5257 52.3776 16.6283 52.3776 16.753V17.534L52.1576 17.776C52.1943 17.5853 52.2786 17.3947 52.4106 17.204C52.5426 17.006 52.7076 16.83 52.9056 16.676C53.1036 16.522 53.3236 16.401 53.5656 16.313C53.8076 16.2177 54.0606 16.17 54.3246 16.17Z" fill="black"/>
<path opacity="0.7" d="M42.6383 43C42.4236 43 42.2463 42.9347 42.1063 42.804C41.9663 42.664 41.8963 42.4913 41.8963 42.286V34.782L42.0783 35.034L40.7763 35.944C40.6643 36.0373 40.529 36.084 40.3703 36.084C40.1836 36.084 40.0156 36.014 39.8663 35.874C39.7263 35.7247 39.6563 35.552 39.6563 35.356C39.6563 35.1133 39.7776 34.9127 40.0203 34.754L42.1483 33.34C42.2323 33.284 42.321 33.2467 42.4143 33.228C42.517 33.2093 42.6103 33.2 42.6943 33.2C42.909 33.2 43.0816 33.27 43.2123 33.41C43.343 33.5407 43.4083 33.7087 43.4083 33.914V42.286C43.4083 42.4913 43.3336 42.664 43.1843 42.804C43.0443 42.9347 42.8623 43 42.6383 43ZM48.6557 33.032C49.1783 33.032 49.6403 33.1347 50.0417 33.34C50.4523 33.5453 50.793 33.8253 51.0637 34.18C51.3437 34.5253 51.5537 34.922 51.6937 35.37C51.843 35.8087 51.9177 36.266 51.9177 36.742C51.9177 37.106 51.8757 37.526 51.7917 38.002C51.7077 38.4687 51.5677 38.9587 51.3717 39.472C51.1757 39.9853 50.9143 40.48 50.5877 40.956C50.2703 41.432 49.869 41.8613 49.3837 42.244C48.9077 42.6173 48.3383 42.9067 47.6757 43.112C47.5823 43.1307 47.4937 43.14 47.4097 43.14C47.223 43.14 47.055 43.0887 46.9057 42.986C46.7657 42.8833 46.6957 42.7153 46.6957 42.482C46.6957 42.3047 46.7517 42.1553 46.8637 42.034C46.9757 41.9127 47.125 41.824 47.3117 41.768C47.769 41.6 48.217 41.3433 48.6557 40.998C49.0943 40.6433 49.4723 40.228 49.7897 39.752C50.107 39.2667 50.3217 38.7487 50.4337 38.198L50.7837 38.142C50.6437 38.338 50.4663 38.5387 50.2517 38.744C50.037 38.9493 49.7803 39.122 49.4817 39.262C49.183 39.3927 48.8377 39.458 48.4457 39.458C47.839 39.458 47.3117 39.3227 46.8637 39.052C46.4157 38.772 46.0703 38.3893 45.8277 37.904C45.585 37.4187 45.4637 36.8633 45.4637 36.238C45.4637 35.6593 45.6037 35.1273 45.8837 34.642C46.173 34.1567 46.5557 33.7693 47.0317 33.48C47.517 33.1813 48.0583 33.032 48.6557 33.032ZM48.6697 34.32C48.3243 34.32 48.0163 34.404 47.7457 34.572C47.475 34.74 47.2603 34.9687 47.1017 35.258C46.943 35.5473 46.8637 35.874 46.8637 36.238C46.8637 36.602 46.9337 36.9333 47.0737 37.232C47.2137 37.5213 47.419 37.75 47.6897 37.918C47.9603 38.086 48.2777 38.17 48.6417 38.17C49.0057 38.17 49.3277 38.086 49.6077 37.918C49.8877 37.7407 50.107 37.5027 50.2657 37.204C50.4243 36.9053 50.5037 36.5787 50.5037 36.224C50.5037 35.8693 50.4243 35.552 50.2657 35.272C50.107 34.9827 49.8923 34.754 49.6217 34.586C49.351 34.4087 49.0337 34.32 48.6697 34.32Z" fill="black"/>
<path opacity="0.5" d="M79.3369 22C79.2049 22 79.0949 21.956 79.0069 21.868C78.9189 21.78 78.8749 21.6737 78.8749 21.549V14.751H79.8099V21.549C79.8099 21.6737 79.7659 21.78 79.6779 21.868C79.5899 21.956 79.4763 22 79.3369 22ZM76.7849 15.136C76.6603 15.136 76.5539 15.0993 76.4659 15.026C76.3853 14.9453 76.3449 14.8427 76.3449 14.718C76.3449 14.5933 76.3853 14.4943 76.4659 14.421C76.5539 14.3403 76.6603 14.3 76.7849 14.3H81.8999C82.0246 14.3 82.1309 14.3403 82.2189 14.421C82.3069 14.4943 82.3509 14.5933 82.3509 14.718C82.3509 14.85 82.3069 14.9527 82.2189 15.026C82.1309 15.0993 82.0246 15.136 81.8999 15.136H76.7849ZM86.4563 16.313C86.5883 16.313 86.6946 16.357 86.7753 16.445C86.8559 16.5257 86.8963 16.6283 86.8963 16.753V19.756C86.8963 20.4967 86.6873 21.0723 86.2693 21.483C85.8586 21.8863 85.2829 22.088 84.5423 22.088C83.8089 22.088 83.2333 21.8863 82.8153 21.483C82.4046 21.0723 82.1993 20.4967 82.1993 19.756V16.753C82.1993 16.6283 82.2396 16.5257 82.3203 16.445C82.4083 16.357 82.5146 16.313 82.6393 16.313C82.7713 16.313 82.8776 16.357 82.9583 16.445C83.0389 16.5257 83.0793 16.6283 83.0793 16.753V19.756C83.0793 20.2547 83.2076 20.6323 83.4643 20.889C83.7209 21.1457 84.0803 21.274 84.5423 21.274C85.0189 21.274 85.3819 21.1457 85.6313 20.889C85.8879 20.6323 86.0163 20.2547 86.0163 19.756V16.753C86.0163 16.6283 86.0566 16.5257 86.1373 16.445C86.2253 16.357 86.3316 16.313 86.4563 16.313ZM91.1554 22.11C90.5687 22.11 90.0554 21.9853 89.6154 21.736C89.1754 21.4867 88.8307 21.1457 88.5814 20.713C88.3394 20.273 88.2184 19.767 88.2184 19.195C88.2184 18.557 88.3431 18.0143 88.5924 17.567C88.8491 17.1123 89.1791 16.7677 89.5824 16.533C89.9931 16.291 90.4257 16.17 90.8804 16.17C91.2177 16.17 91.5441 16.2323 91.8594 16.357C92.1747 16.4817 92.4534 16.665 92.6954 16.907C92.9374 17.1417 93.1317 17.4277 93.2784 17.765C93.4251 18.095 93.5021 18.4653 93.5094 18.876C93.5094 18.9933 93.4654 19.0923 93.3774 19.173C93.2894 19.2537 93.1867 19.294 93.0694 19.294H88.7244L88.5264 18.535H92.7614L92.5854 18.689V18.447C92.5561 18.1463 92.4534 17.8897 92.2774 17.677C92.1087 17.457 91.8997 17.2883 91.6504 17.171C91.4084 17.0537 91.1517 16.995 90.8804 16.995C90.6604 16.995 90.4404 17.0353 90.2204 17.116C90.0077 17.1893 89.8134 17.314 89.6374 17.49C89.4687 17.6587 89.3294 17.8787 89.2194 18.15C89.1167 18.4213 89.0654 18.7477 89.0654 19.129C89.0654 19.5543 89.1497 19.9283 89.3184 20.251C89.4944 20.5737 89.7364 20.8303 90.0444 21.021C90.3524 21.2043 90.7117 21.296 91.1224 21.296C91.3791 21.296 91.6027 21.263 91.7934 21.197C91.9841 21.131 92.1491 21.0503 92.2884 20.955C92.4277 20.8523 92.5451 20.7497 92.6404 20.647C92.7357 20.581 92.8274 20.548 92.9154 20.548C93.0254 20.548 93.1134 20.5847 93.1794 20.658C93.2527 20.7313 93.2894 20.8193 93.2894 20.922C93.2894 21.0467 93.2307 21.1567 93.1134 21.252C92.9081 21.4793 92.6294 21.681 92.2774 21.857C91.9254 22.0257 91.5514 22.11 91.1554 22.11Z" fill="black"/>
<path opacity="0.7" d="M83.272 41.698C83.4587 41.698 83.6127 41.7633 83.734 41.894C83.8647 42.0153 83.93 42.1693 83.93 42.356C83.93 42.5427 83.8647 42.6967 83.734 42.818C83.6127 42.9393 83.4587 43 83.272 43H78.358C78.1527 43 77.9894 42.9393 77.868 42.818C77.7467 42.6967 77.686 42.5333 77.686 42.328C77.686 42.1413 77.7514 41.9733 77.882 41.824L81.004 38.45C81.4054 38.0207 81.7134 37.596 81.928 37.176C82.152 36.756 82.264 36.3873 82.264 36.07C82.264 35.5567 82.11 35.1413 81.802 34.824C81.494 34.5067 81.088 34.348 80.584 34.348C80.3694 34.348 80.15 34.3993 79.926 34.502C79.7114 34.5953 79.506 34.726 79.31 34.894C79.1234 35.0527 78.96 35.2393 78.82 35.454C78.7267 35.5847 78.6334 35.6687 78.54 35.706C78.4467 35.7433 78.358 35.762 78.274 35.762C78.0967 35.762 77.9334 35.7013 77.784 35.58C77.644 35.4493 77.574 35.3 77.574 35.132C77.574 35.0013 77.616 34.8753 77.7 34.754C77.784 34.6327 77.8914 34.5067 78.022 34.376C78.2274 34.124 78.4747 33.9 78.764 33.704C79.0627 33.4987 79.3754 33.34 79.702 33.228C80.0287 33.116 80.3507 33.06 80.668 33.06C81.284 33.06 81.816 33.1813 82.264 33.424C82.7214 33.6667 83.0714 34.0073 83.314 34.446C83.566 34.8847 83.692 35.4027 83.692 36C83.692 36.504 83.538 37.064 83.23 37.68C82.9314 38.2867 82.5114 38.884 81.97 39.472L79.8 41.838L79.646 41.698H83.272ZM88.9484 43.14C88.1644 43.14 87.5017 42.9253 86.9604 42.496C86.419 42.0573 86.0084 41.46 85.7284 40.704C85.4577 39.9387 85.3224 39.0707 85.3224 38.1C85.3224 37.12 85.4577 36.252 85.7284 35.496C86.0084 34.7307 86.419 34.1333 86.9604 33.704C87.5017 33.2747 88.1644 33.06 88.9484 33.06C89.7324 33.06 90.3904 33.2747 90.9224 33.704C91.4637 34.1333 91.8744 34.7307 92.1544 35.496C92.4344 36.252 92.5744 37.12 92.5744 38.1C92.5744 39.0707 92.4344 39.9387 92.1544 40.704C91.8744 41.46 91.4637 42.0573 90.9224 42.496C90.3904 42.9253 89.7324 43.14 88.9484 43.14ZM88.9484 41.726C89.387 41.726 89.7604 41.586 90.0684 41.306C90.3857 41.026 90.6284 40.6153 90.7964 40.074C90.9737 39.5327 91.0624 38.8747 91.0624 38.1C91.0624 37.316 90.9737 36.6533 90.7964 36.112C90.6284 35.5707 90.3857 35.16 90.0684 34.88C89.7604 34.6 89.387 34.46 88.9484 34.46C88.5097 34.46 88.1317 34.6 87.8144 34.88C87.497 35.16 87.2544 35.5707 87.0864 36.112C86.9184 36.6533 86.8344 37.316 86.8344 38.1C86.8344 38.8747 86.9184 39.5327 87.0864 40.074C87.2544 40.6153 87.497 41.026 87.8144 41.306C88.1317 41.586 88.5097 41.726 88.9484 41.726Z" fill="black"/>
<path opacity="0.5" d="M122.065 14.267C122.182 14.267 122.289 14.3073 122.384 14.388C122.487 14.4687 122.538 14.5823 122.538 14.729C122.538 14.7803 122.531 14.8353 122.516 14.894L120.173 21.714C120.144 21.802 120.089 21.8717 120.008 21.923C119.935 21.967 119.858 21.9927 119.777 22C119.689 22 119.605 21.978 119.524 21.934C119.443 21.8827 119.381 21.8093 119.337 21.714L117.5 17.27L117.588 17.303L115.762 21.714C115.718 21.8093 115.656 21.8827 115.575 21.934C115.494 21.978 115.41 22 115.322 22C115.241 21.9927 115.161 21.967 115.08 21.923C115.007 21.8717 114.955 21.802 114.926 21.714L112.583 14.894C112.568 14.8353 112.561 14.784 112.561 14.74C112.561 14.5933 112.612 14.4797 112.715 14.399C112.825 14.311 112.935 14.267 113.045 14.267C113.133 14.267 113.217 14.2927 113.298 14.344C113.379 14.3953 113.434 14.465 113.463 14.553L115.52 20.625H115.366L117.159 16.192C117.196 16.104 117.251 16.0343 117.324 15.983C117.397 15.9317 117.482 15.906 117.577 15.906C117.665 15.906 117.746 15.9317 117.819 15.983C117.9 16.0343 117.955 16.104 117.984 16.192L119.722 20.559L119.59 20.614L121.636 14.553C121.665 14.465 121.72 14.3953 121.801 14.344C121.882 14.2927 121.97 14.267 122.065 14.267ZM126.106 22.11C125.519 22.11 125.006 21.9853 124.566 21.736C124.126 21.4867 123.781 21.1457 123.532 20.713C123.29 20.273 123.169 19.767 123.169 19.195C123.169 18.557 123.293 18.0143 123.543 17.567C123.799 17.1123 124.129 16.7677 124.533 16.533C124.943 16.291 125.376 16.17 125.831 16.17C126.168 16.17 126.494 16.2323 126.81 16.357C127.125 16.4817 127.404 16.665 127.646 16.907C127.888 17.1417 128.082 17.4277 128.229 17.765C128.375 18.095 128.452 18.4653 128.46 18.876C128.46 18.9933 128.416 19.0923 128.328 19.173C128.24 19.2537 128.137 19.294 128.02 19.294H123.675L123.477 18.535H127.712L127.536 18.689V18.447C127.506 18.1463 127.404 17.8897 127.228 17.677C127.059 17.457 126.85 17.2883 126.601 17.171C126.359 17.0537 126.102 16.995 125.831 16.995C125.611 16.995 125.391 17.0353 125.171 17.116C124.958 17.1893 124.764 17.314 124.588 17.49C124.419 17.6587 124.28 17.8787 124.17 18.15C124.067 18.4213 124.016 18.7477 124.016 19.129C124.016 19.5543 124.1 19.9283 124.269 20.251C124.445 20.5737 124.687 20.8303 124.995 21.021C125.303 21.2043 125.662 21.296 126.073 21.296C126.329 21.296 126.553 21.263 126.744 21.197C126.934 21.131 127.099 21.0503 127.239 20.955C127.378 20.8523 127.495 20.7497 127.591 20.647C127.686 20.581 127.778 20.548 127.866 20.548C127.976 20.548 128.064 20.5847 128.13 20.658C128.203 20.7313 128.24 20.8193 128.24 20.922C128.24 21.0467 128.181 21.1567 128.064 21.252C127.858 21.4793 127.58 21.681 127.228 21.857C126.876 22.0257 126.502 22.11 126.106 22.11ZM134.468 13.86C134.593 13.86 134.696 13.904 134.776 13.992C134.864 14.0727 134.908 14.1753 134.908 14.3V21.549C134.908 21.6737 134.864 21.78 134.776 21.868C134.696 21.956 134.593 22 134.468 22C134.336 22 134.23 21.956 134.149 21.868C134.069 21.78 134.028 21.6737 134.028 21.549V20.504L134.237 20.427C134.237 20.603 134.182 20.79 134.072 20.988C133.962 21.1787 133.812 21.3583 133.621 21.527C133.431 21.6957 133.203 21.835 132.939 21.945C132.683 22.055 132.404 22.11 132.103 22.11C131.612 22.11 131.165 21.9817 130.761 21.725C130.365 21.4683 130.05 21.1163 129.815 20.669C129.588 20.2217 129.474 19.712 129.474 19.14C129.474 18.5607 129.588 18.0473 129.815 17.6C130.05 17.1527 130.365 16.8043 130.761 16.555C131.157 16.2983 131.597 16.17 132.081 16.17C132.389 16.17 132.679 16.2213 132.95 16.324C133.222 16.4267 133.456 16.566 133.654 16.742C133.86 16.918 134.021 17.1123 134.138 17.325C134.256 17.5377 134.314 17.7503 134.314 17.963L134.028 17.897V14.3C134.028 14.1753 134.069 14.0727 134.149 13.992C134.23 13.904 134.336 13.86 134.468 13.86ZM132.202 21.296C132.569 21.296 132.892 21.2043 133.17 21.021C133.456 20.8303 133.676 20.5737 133.83 20.251C133.992 19.921 134.072 19.5507 134.072 19.14C134.072 18.722 133.992 18.3517 133.83 18.029C133.676 17.7063 133.456 17.4533 133.17 17.27C132.892 17.0793 132.569 16.984 132.202 16.984C131.843 16.984 131.52 17.0793 131.234 17.27C130.956 17.4533 130.736 17.7063 130.574 18.029C130.413 18.3517 130.332 18.722 130.332 19.14C130.332 19.5433 130.413 19.91 130.574 20.24C130.736 20.5627 130.956 20.8193 131.234 21.01C131.52 21.2007 131.843 21.296 132.202 21.296Z" fill="black"/>
<path opacity="0.7" d="M123.851 41.698C124.038 41.698 124.192 41.7633 124.313 41.894C124.444 42.0153 124.509 42.1693 124.509 42.356C124.509 42.5427 124.444 42.6967 124.313 42.818C124.192 42.9393 124.038 43 123.851 43H118.937C118.732 43 118.568 42.9393 118.447 42.818C118.326 42.6967 118.265 42.5333 118.265 42.328C118.265 42.1413 118.33 41.9733 118.461 41.824L121.583 38.45C121.984 38.0207 122.292 37.596 122.507 37.176C122.731 36.756 122.843 36.3873 122.843 36.07C122.843 35.5567 122.689 35.1413 122.381 34.824C122.073 34.5067 121.667 34.348 121.163 34.348C120.948 34.348 120.729 34.3993 120.505 34.502C120.29 34.5953 120.085 34.726 119.889 34.894C119.702 35.0527 119.539 35.2393 119.399 35.454C119.306 35.5847 119.212 35.6687 119.119 35.706C119.026 35.7433 118.937 35.762 118.853 35.762C118.676 35.762 118.512 35.7013 118.363 35.58C118.223 35.4493 118.153 35.3 118.153 35.132C118.153 35.0013 118.195 34.8753 118.279 34.754C118.363 34.6327 118.47 34.5067 118.601 34.376C118.806 34.124 119.054 33.9 119.343 33.704C119.642 33.4987 119.954 33.34 120.281 33.228C120.608 33.116 120.93 33.06 121.247 33.06C121.863 33.06 122.395 33.1813 122.843 33.424C123.3 33.6667 123.65 34.0073 123.893 34.446C124.145 34.8847 124.271 35.4027 124.271 36C124.271 36.504 124.117 37.064 123.809 37.68C123.51 38.2867 123.09 38.884 122.549 39.472L120.379 41.838L120.225 41.698H123.851ZM128.547 43C128.333 43 128.155 42.9347 128.015 42.804C127.875 42.664 127.805 42.4913 127.805 42.286V34.782L127.987 35.034L126.685 35.944C126.573 36.0373 126.438 36.084 126.279 36.084C126.093 36.084 125.925 36.014 125.775 35.874C125.635 35.7247 125.565 35.552 125.565 35.356C125.565 35.1133 125.687 34.9127 125.929 34.754L128.057 33.34C128.141 33.284 128.23 33.2467 128.323 33.228C128.426 33.2093 128.519 33.2 128.603 33.2C128.818 33.2 128.991 33.27 129.121 33.41C129.252 33.5407 129.317 33.7087 129.317 33.914V42.286C129.317 42.4913 129.243 42.664 129.093 42.804C128.953 42.9347 128.771 43 128.547 43Z" fill="black"/>
<path opacity="0.5" d="M156.671 22C156.539 22 156.429 21.956 156.341 21.868C156.253 21.78 156.209 21.6737 156.209 21.549V14.751H157.144V21.549C157.144 21.6737 157.1 21.78 157.012 21.868C156.924 21.956 156.81 22 156.671 22ZM154.119 15.136C153.994 15.136 153.888 15.0993 153.8 15.026C153.719 14.9453 153.679 14.8427 153.679 14.718C153.679 14.5933 153.719 14.4943 153.8 14.421C153.888 14.3403 153.994 14.3 154.119 14.3H159.234C159.359 14.3 159.465 14.3403 159.553 14.421C159.641 14.4943 159.685 14.5933 159.685 14.718C159.685 14.85 159.641 14.9527 159.553 15.026C159.465 15.0993 159.359 15.136 159.234 15.136H154.119ZM163.605 16.225C164.089 16.225 164.47 16.3313 164.749 16.544C165.035 16.7493 165.236 17.028 165.354 17.38C165.478 17.7247 165.541 18.1097 165.541 18.535V21.549C165.541 21.6737 165.497 21.78 165.409 21.868C165.328 21.956 165.225 22 165.101 22C164.976 22 164.87 21.956 164.782 21.868C164.701 21.78 164.661 21.6737 164.661 21.549V18.535C164.661 18.2563 164.62 18.007 164.54 17.787C164.459 17.5597 164.323 17.38 164.133 17.248C163.949 17.1087 163.696 17.039 163.374 17.039C163.073 17.039 162.798 17.1087 162.549 17.248C162.299 17.38 162.101 17.5597 161.955 17.787C161.808 18.007 161.735 18.2563 161.735 18.535V21.549C161.735 21.6737 161.691 21.78 161.603 21.868C161.522 21.956 161.419 22 161.295 22C161.17 22 161.064 21.956 160.976 21.868C160.895 21.78 160.855 21.6737 160.855 21.549V14.3C160.855 14.1753 160.895 14.0727 160.976 13.992C161.064 13.904 161.17 13.86 161.295 13.86C161.427 13.86 161.533 13.904 161.614 13.992C161.694 14.0727 161.735 14.1753 161.735 14.3V17.589L161.515 17.831C161.551 17.6403 161.632 17.4497 161.757 17.259C161.881 17.061 162.039 16.885 162.23 16.731C162.42 16.577 162.633 16.456 162.868 16.368C163.102 16.2727 163.348 16.225 163.605 16.225ZM171.428 16.313C171.56 16.313 171.666 16.357 171.747 16.445C171.828 16.5257 171.868 16.6283 171.868 16.753V19.756C171.868 20.4967 171.659 21.0723 171.241 21.483C170.83 21.8863 170.255 22.088 169.514 22.088C168.781 22.088 168.205 21.8863 167.787 21.483C167.376 21.0723 167.171 20.4967 167.171 19.756V16.753C167.171 16.6283 167.211 16.5257 167.292 16.445C167.38 16.357 167.486 16.313 167.611 16.313C167.743 16.313 167.849 16.357 167.93 16.445C168.011 16.5257 168.051 16.6283 168.051 16.753V19.756C168.051 20.2547 168.179 20.6323 168.436 20.889C168.693 21.1457 169.052 21.274 169.514 21.274C169.991 21.274 170.354 21.1457 170.603 20.889C170.86 20.6323 170.988 20.2547 170.988 19.756V16.753C170.988 16.6283 171.028 16.5257 171.109 16.445C171.197 16.357 171.303 16.313 171.428 16.313Z" fill="black"/>
<path opacity="0.7" d="M161.58 41.698C161.766 41.698 161.92 41.7633 162.042 41.894C162.172 42.0153 162.238 42.1693 162.238 42.356C162.238 42.5427 162.172 42.6967 162.042 42.818C161.92 42.9393 161.766 43 161.58 43H156.666C156.46 43 156.297 42.9393 156.176 42.818C156.054 42.6967 155.994 42.5333 155.994 42.328C155.994 42.1413 156.059 41.9733 156.19 41.824L159.312 38.45C159.713 38.0207 160.021 37.596 160.236 37.176C160.46 36.756 160.572 36.3873 160.572 36.07C160.572 35.5567 160.418 35.1413 160.11 34.824C159.802 34.5067 159.396 34.348 158.892 34.348C158.677 34.348 158.458 34.3993 158.234 34.502C158.019 34.5953 157.814 34.726 157.618 34.894C157.431 35.0527 157.268 35.2393 157.128 35.454C157.034 35.5847 156.941 35.6687 156.848 35.706C156.754 35.7433 156.666 35.762 156.582 35.762C156.404 35.762 156.241 35.7013 156.092 35.58C155.952 35.4493 155.882 35.3 155.882 35.132C155.882 35.0013 155.924 34.8753 156.008 34.754C156.092 34.6327 156.199 34.5067 156.33 34.376C156.535 34.124 156.782 33.9 157.072 33.704C157.37 33.4987 157.683 33.34 158.01 33.228C158.336 33.116 158.658 33.06 158.976 33.06C159.592 33.06 160.124 33.1813 160.572 33.424C161.029 33.6667 161.379 34.0073 161.622 34.446C161.874 34.8847 162 35.4027 162 36C162 36.504 161.846 37.064 161.538 37.68C161.239 38.2867 160.819 38.884 160.278 39.472L158.108 41.838L157.954 41.698H161.58ZM169.482 41.698C169.669 41.698 169.823 41.7633 169.944 41.894C170.075 42.0153 170.14 42.1693 170.14 42.356C170.14 42.5427 170.075 42.6967 169.944 42.818C169.823 42.9393 169.669 43 169.482 43H164.568C164.363 43 164.199 42.9393 164.078 42.818C163.957 42.6967 163.896 42.5333 163.896 42.328C163.896 42.1413 163.961 41.9733 164.092 41.824L167.214 38.45C167.615 38.0207 167.923 37.596 168.138 37.176C168.362 36.756 168.474 36.3873 168.474 36.07C168.474 35.5567 168.32 35.1413 168.012 34.824C167.704 34.5067 167.298 34.348 166.794 34.348C166.579 34.348 166.36 34.3993 166.136 34.502C165.921 34.5953 165.716 34.726 165.52 34.894C165.333 35.0527 165.17 35.2393 165.03 35.454C164.937 35.5847 164.843 35.6687 164.75 35.706C164.657 35.7433 164.568 35.762 164.484 35.762C164.307 35.762 164.143 35.7013 163.994 35.58C163.854 35.4493 163.784 35.3 163.784 35.132C163.784 35.0013 163.826 34.8753 163.91 34.754C163.994 34.6327 164.101 34.5067 164.232 34.376C164.437 34.124 164.685 33.9 164.974 33.704C165.273 33.4987 165.585 33.34 165.912 33.228C166.239 33.116 166.561 33.06 166.878 33.06C167.494 33.06 168.026 33.1813 168.474 33.424C168.931 33.6667 169.281 34.0073 169.524 34.446C169.776 34.8847 169.902 35.4027 169.902 36C169.902 36.504 169.748 37.064 169.44 37.68C169.141 38.2867 168.721 38.884 168.18 39.472L166.01 41.838L165.856 41.698H169.482Z" fill="black"/>
<rect x="182.5" width="39" height="58" rx="8" fill="#776EA5"/>
<path d="M196.868 22C196.692 22 196.549 21.9487 196.439 21.846C196.336 21.736 196.285 21.6003 196.285 21.439V14.861C196.285 14.6997 196.34 14.5677 196.45 14.465C196.56 14.355 196.692 14.3 196.846 14.3H200.564C200.725 14.3 200.857 14.3513 200.96 14.454C201.07 14.5567 201.125 14.685 201.125 14.839C201.125 14.9783 201.07 15.0993 200.96 15.202C200.857 15.3047 200.725 15.356 200.564 15.356H197.352L197.429 15.246V17.699L197.363 17.567H200.069C200.23 17.567 200.362 17.6183 200.465 17.721C200.575 17.8237 200.63 17.952 200.63 18.106C200.63 18.2453 200.575 18.3663 200.465 18.469C200.362 18.5717 200.23 18.623 200.069 18.623H197.341L197.429 18.535V21.439C197.429 21.6003 197.374 21.736 197.264 21.846C197.154 21.9487 197.022 22 196.868 22ZM202.815 22C202.654 22 202.522 21.9487 202.419 21.846C202.316 21.736 202.265 21.6003 202.265 21.439V16.775C202.265 16.6137 202.316 16.4817 202.419 16.379C202.522 16.269 202.654 16.214 202.815 16.214C202.969 16.214 203.097 16.269 203.2 16.379C203.31 16.4817 203.365 16.6137 203.365 16.775V18.007L203.255 17.534C203.314 17.3287 203.402 17.138 203.519 16.962C203.644 16.786 203.79 16.632 203.959 16.5C204.128 16.368 204.315 16.2653 204.52 16.192C204.733 16.1187 204.953 16.082 205.18 16.082C205.371 16.082 205.536 16.1333 205.675 16.236C205.814 16.3387 205.884 16.467 205.884 16.621C205.884 16.819 205.833 16.9657 205.73 17.061C205.627 17.149 205.514 17.193 205.389 17.193C205.279 17.193 205.173 17.171 205.07 17.127C204.967 17.0757 204.846 17.05 204.707 17.05C204.553 17.05 204.395 17.0903 204.234 17.171C204.073 17.2517 203.926 17.3727 203.794 17.534C203.662 17.688 203.556 17.8713 203.475 18.084C203.402 18.2967 203.365 18.535 203.365 18.799V21.439C203.365 21.6003 203.31 21.736 203.2 21.846C203.097 21.9487 202.969 22 202.815 22ZM207.897 21.439C207.897 21.6003 207.845 21.736 207.743 21.846C207.64 21.9487 207.508 22 207.347 22C207.193 22 207.061 21.9487 206.951 21.846C206.848 21.736 206.797 21.6003 206.797 21.439V16.731C206.797 16.5697 206.848 16.4377 206.951 16.335C207.061 16.225 207.193 16.17 207.347 16.17C207.508 16.17 207.64 16.225 207.743 16.335C207.845 16.4377 207.897 16.5697 207.897 16.731V21.439ZM207.336 15.444C207.123 15.444 206.969 15.4073 206.874 15.334C206.778 15.2533 206.731 15.1213 206.731 14.938V14.762C206.731 14.5787 206.782 14.4503 206.885 14.377C206.987 14.3037 207.141 14.267 207.347 14.267C207.567 14.267 207.724 14.3073 207.82 14.388C207.915 14.4613 207.963 14.586 207.963 14.762V14.938C207.963 15.1287 207.911 15.2607 207.809 15.334C207.713 15.4073 207.556 15.444 207.336 15.444Z" fill="white"/>
<path d="M200.798 41.698C200.985 41.698 201.139 41.7633 201.26 41.894C201.391 42.0153 201.456 42.1693 201.456 42.356C201.456 42.5427 201.391 42.6967 201.26 42.818C201.139 42.9393 200.985 43 200.798 43H195.884C195.679 43 195.516 42.9393 195.394 42.818C195.273 42.6967 195.212 42.5333 195.212 42.328C195.212 42.1413 195.278 41.9733 195.408 41.824L198.53 38.45C198.932 38.0207 199.24 37.596 199.454 37.176C199.678 36.756 199.79 36.3873 199.79 36.07C199.79 35.5567 199.636 35.1413 199.328 34.824C199.02 34.5067 198.614 34.348 198.11 34.348C197.896 34.348 197.676 34.3993 197.452 34.502C197.238 34.5953 197.032 34.726 196.836 34.894C196.65 35.0527 196.486 35.2393 196.346 35.454C196.253 35.5847 196.16 35.6687 196.066 35.706C195.973 35.7433 195.884 35.762 195.8 35.762C195.623 35.762 195.46 35.7013 195.31 35.58C195.17 35.4493 195.1 35.3 195.1 35.132C195.1 35.0013 195.142 34.8753 195.226 34.754C195.31 34.6327 195.418 34.5067 195.548 34.376C195.754 34.124 196.001 33.9 196.29 33.704C196.589 33.4987 196.902 33.34 197.228 33.228C197.555 33.116 197.877 33.06 198.194 33.06C198.81 33.06 199.342 33.1813 199.79 33.424C200.248 33.6667 200.598 34.0073 200.84 34.446C201.092 34.8847 201.218 35.4027 201.218 36C201.218 36.504 201.064 37.064 200.756 37.68C200.458 38.2867 200.038 38.884 199.496 39.472L197.326 41.838L197.172 41.698H200.798ZM203.675 41.208C203.749 41.208 203.829 41.222 203.913 41.25C203.997 41.2687 204.09 41.3153 204.193 41.39C204.361 41.5393 204.561 41.6653 204.795 41.768C205.037 41.8613 205.313 41.908 205.621 41.908C205.966 41.908 206.288 41.8287 206.587 41.67C206.885 41.502 207.128 41.2687 207.315 40.97C207.501 40.6713 207.595 40.3167 207.595 39.906C207.595 39.486 207.506 39.1453 207.329 38.884C207.151 38.6133 206.923 38.4127 206.643 38.282C206.363 38.142 206.069 38.072 205.761 38.072C205.583 38.072 205.434 38.0907 205.313 38.128C205.191 38.156 205.075 38.1887 204.963 38.226C204.851 38.254 204.729 38.268 204.599 38.268C204.421 38.268 204.281 38.2073 204.179 38.086C204.076 37.9553 204.025 37.8013 204.025 37.624C204.025 37.512 204.048 37.414 204.095 37.33C204.141 37.246 204.207 37.1527 204.291 37.05L206.881 34.278L207.189 34.558H203.479C203.292 34.558 203.133 34.4973 203.003 34.376C202.881 34.2453 202.821 34.0867 202.821 33.9C202.821 33.7227 202.881 33.5733 203.003 33.452C203.133 33.3307 203.292 33.27 203.479 33.27H207.903C208.145 33.27 208.323 33.34 208.435 33.48C208.556 33.62 208.617 33.7833 208.617 33.97C208.617 34.0727 208.589 34.1707 208.533 34.264C208.486 34.3573 208.425 34.446 208.351 34.53L205.747 37.33L205.397 36.952C205.471 36.9147 205.597 36.8773 205.775 36.84C205.952 36.8027 206.097 36.784 206.209 36.784C206.741 36.784 207.217 36.9193 207.637 37.19C208.066 37.4607 208.397 37.8247 208.631 38.282C208.873 38.73 208.995 39.2387 208.995 39.808C208.995 40.4893 208.841 41.082 208.533 41.586C208.225 42.0807 207.795 42.4633 207.245 42.734C206.703 43.0047 206.078 43.14 205.369 43.14C205.014 43.14 204.659 43.0933 204.305 43C203.959 42.8973 203.661 42.7527 203.409 42.566C203.25 42.4727 203.143 42.3747 203.087 42.272C203.031 42.16 203.003 42.0527 203.003 41.95C203.003 41.7727 203.063 41.6047 203.185 41.446C203.315 41.2873 203.479 41.208 203.675 41.208Z" fill="white"/>
<path opacity="0.5" d="M235.677 22.11C235.135 22.11 234.658 22.0293 234.247 21.868C233.837 21.7067 233.441 21.45 233.059 21.098C233.008 21.0467 232.964 20.9917 232.927 20.933C232.898 20.867 232.883 20.7973 232.883 20.724C232.883 20.6067 232.924 20.504 233.004 20.416C233.092 20.3207 233.199 20.273 233.323 20.273C233.426 20.273 233.518 20.3133 233.598 20.394C233.884 20.6727 234.192 20.8853 234.522 21.032C234.86 21.1787 235.237 21.252 235.655 21.252C235.978 21.252 236.268 21.2007 236.524 21.098C236.788 20.9953 236.997 20.8523 237.151 20.669C237.305 20.4857 237.382 20.273 237.382 20.031C237.375 19.7377 237.287 19.4957 237.118 19.305C236.957 19.1143 236.73 18.9567 236.436 18.832C236.15 18.7 235.817 18.59 235.435 18.502C235.098 18.4213 234.786 18.3223 234.5 18.205C234.222 18.0877 233.98 17.9447 233.774 17.776C233.569 17.6 233.408 17.391 233.29 17.149C233.18 16.8997 233.125 16.61 233.125 16.28C233.125 15.862 233.235 15.4953 233.455 15.18C233.675 14.8647 233.98 14.6227 234.368 14.454C234.757 14.278 235.204 14.19 235.71 14.19C236.158 14.19 236.579 14.2633 236.975 14.41C237.379 14.5567 237.701 14.7583 237.943 15.015C238.09 15.1543 238.163 15.29 238.163 15.422C238.163 15.532 238.116 15.6347 238.02 15.73C237.932 15.818 237.83 15.862 237.712 15.862C237.632 15.862 237.558 15.8327 237.492 15.774C237.368 15.6347 237.21 15.51 237.019 15.4C236.829 15.29 236.62 15.202 236.392 15.136C236.165 15.07 235.938 15.037 235.71 15.037C235.373 15.037 235.076 15.0883 234.819 15.191C234.563 15.2863 234.361 15.4257 234.214 15.609C234.075 15.785 234.005 15.9977 234.005 16.247C234.005 16.5257 234.086 16.7567 234.247 16.94C234.409 17.116 234.625 17.2627 234.896 17.38C235.168 17.49 235.468 17.589 235.798 17.677C236.158 17.765 236.488 17.8677 236.788 17.985C237.096 18.095 237.36 18.2343 237.58 18.403C237.8 18.5717 237.969 18.788 238.086 19.052C238.211 19.3087 238.273 19.6277 238.273 20.009C238.273 20.4123 238.16 20.7717 237.932 21.087C237.705 21.4023 237.393 21.6517 236.997 21.835C236.609 22.011 236.169 22.1027 235.677 22.11ZM244.282 16.258C244.406 16.258 244.509 16.302 244.59 16.39C244.678 16.4707 244.722 16.5733 244.722 16.698V21.549C244.722 21.6737 244.678 21.78 244.59 21.868C244.509 21.956 244.406 22 244.282 22C244.15 22 244.043 21.956 243.963 21.868C243.882 21.78 243.842 21.6737 243.842 21.549V20.504L244.051 20.482C244.051 20.6433 243.996 20.8193 243.886 21.01C243.776 21.2007 243.625 21.3803 243.435 21.549C243.244 21.7103 243.017 21.846 242.753 21.956C242.496 22.0587 242.217 22.11 241.917 22.11C241.418 22.11 240.971 21.9817 240.575 21.725C240.179 21.461 239.863 21.1053 239.629 20.658C239.401 20.2107 239.288 19.701 239.288 19.129C239.288 18.5497 239.401 18.04 239.629 17.6C239.863 17.1527 240.179 16.8043 240.575 16.555C240.971 16.2983 241.411 16.17 241.895 16.17C242.21 16.17 242.503 16.2213 242.775 16.324C243.046 16.4267 243.281 16.566 243.479 16.742C243.684 16.918 243.842 17.1123 243.952 17.325C244.069 17.5377 244.128 17.7503 244.128 17.963L243.842 17.897V16.698C243.842 16.5733 243.882 16.4707 243.963 16.39C244.043 16.302 244.15 16.258 244.282 16.258ZM242.016 21.296C242.382 21.296 242.705 21.2007 242.984 21.01C243.27 20.8193 243.49 20.5627 243.644 20.24C243.805 19.91 243.886 19.5397 243.886 19.129C243.886 18.7257 243.805 18.3627 243.644 18.04C243.49 17.71 243.27 17.4533 242.984 17.27C242.705 17.0793 242.382 16.984 242.016 16.984C241.656 16.984 241.334 17.0757 241.048 17.259C240.769 17.4423 240.549 17.6953 240.388 18.018C240.226 18.3407 240.146 18.711 240.146 19.129C240.146 19.5397 240.223 19.91 240.377 20.24C240.538 20.5627 240.758 20.8193 241.037 21.01C241.323 21.2007 241.649 21.296 242.016 21.296ZM246.133 16.346H248.718C248.835 16.346 248.93 16.3863 249.004 16.467C249.084 16.5477 249.125 16.643 249.125 16.753C249.125 16.8703 249.084 16.9693 249.004 17.05C248.93 17.1233 248.835 17.16 248.718 17.16H246.133C246.023 17.16 245.927 17.1197 245.847 17.039C245.766 16.9583 245.726 16.8593 245.726 16.742C245.726 16.632 245.766 16.5403 245.847 16.467C245.927 16.3863 246.023 16.346 246.133 16.346ZM247.288 14.85C247.412 14.85 247.515 14.894 247.596 14.982C247.676 15.0627 247.717 15.1653 247.717 15.29V20.603C247.717 20.779 247.742 20.911 247.794 20.999C247.845 21.087 247.911 21.1493 247.992 21.186C248.08 21.2153 248.164 21.23 248.245 21.23C248.318 21.23 248.38 21.219 248.432 21.197C248.49 21.1677 248.556 21.153 248.63 21.153C248.703 21.153 248.769 21.1897 248.828 21.263C248.894 21.329 248.927 21.417 248.927 21.527C248.927 21.659 248.85 21.7727 248.696 21.868C248.542 21.956 248.369 22 248.179 22C248.076 22 247.948 21.9927 247.794 21.978C247.647 21.9633 247.5 21.9157 247.354 21.835C247.207 21.7543 247.082 21.6223 246.98 21.439C246.884 21.2483 246.837 20.9843 246.837 20.647V15.29C246.837 15.1653 246.881 15.0627 246.969 14.982C247.057 14.894 247.163 14.85 247.288 14.85Z" fill="black"/>
<path opacity="0.7" d="M239.586 41.698C239.773 41.698 239.927 41.7633 240.048 41.894C240.179 42.0153 240.244 42.1693 240.244 42.356C240.244 42.5427 240.179 42.6967 240.048 42.818C239.927 42.9393 239.773 43 239.586 43H234.672C234.467 43 234.304 42.9393 234.182 42.818C234.061 42.6967 234 42.5333 234 42.328C234 42.1413 234.066 41.9733 234.196 41.824L237.318 38.45C237.72 38.0207 238.028 37.596 238.242 37.176C238.466 36.756 238.578 36.3873 238.578 36.07C238.578 35.5567 238.424 35.1413 238.116 34.824C237.808 34.5067 237.402 34.348 236.898 34.348C236.684 34.348 236.464 34.3993 236.24 34.502C236.026 34.5953 235.82 34.726 235.624 34.894C235.438 35.0527 235.274 35.2393 235.134 35.454C235.041 35.5847 234.948 35.6687 234.854 35.706C234.761 35.7433 234.672 35.762 234.588 35.762C234.411 35.762 234.248 35.7013 234.098 35.58C233.958 35.4493 233.888 35.3 233.888 35.132C233.888 35.0013 233.93 34.8753 234.014 34.754C234.098 34.6327 234.206 34.5067 234.336 34.376C234.542 34.124 234.789 33.9 235.078 33.704C235.377 33.4987 235.69 33.34 236.016 33.228C236.343 33.116 236.665 33.06 236.982 33.06C237.598 33.06 238.13 33.1813 238.578 33.424C239.036 33.6667 239.386 34.0073 239.628 34.446C239.88 34.8847 240.006 35.4027 240.006 36C240.006 36.504 239.852 37.064 239.544 37.68C239.246 38.2867 238.826 38.884 238.284 39.472L236.114 41.838L235.96 41.698H239.586ZM246.286 43C246.09 43 245.927 42.9347 245.796 42.804C245.666 42.664 245.6 42.4913 245.6 42.286V35.16L245.852 35.244L242.828 39.108L242.758 38.926H247.854C248.041 38.926 248.195 38.9913 248.316 39.122C248.447 39.2433 248.512 39.3973 248.512 39.584C248.512 39.7613 248.447 39.9107 248.316 40.032C248.195 40.1533 248.041 40.214 247.854 40.214H241.792C241.624 40.214 241.466 40.1487 241.316 40.018C241.167 39.878 241.092 39.7147 241.092 39.528C241.092 39.3507 241.153 39.192 241.274 39.052L245.726 33.48C245.792 33.3867 245.876 33.3167 245.978 33.27C246.081 33.2233 246.188 33.2 246.3 33.2C246.506 33.2 246.674 33.27 246.804 33.41C246.935 33.5407 247 33.7087 247 33.914V42.286C247 42.4913 246.93 42.664 246.79 42.804C246.65 42.9347 246.482 43 246.286 43Z" fill="black"/>
<path opacity="0.5" d="M273.678 22.11C273.136 22.11 272.659 22.0293 272.248 21.868C271.838 21.7067 271.442 21.45 271.06 21.098C271.009 21.0467 270.965 20.9917 270.928 20.933C270.899 20.867 270.884 20.7973 270.884 20.724C270.884 20.6067 270.925 20.504 271.005 20.416C271.093 20.3207 271.2 20.273 271.324 20.273C271.427 20.273 271.519 20.3133 271.599 20.394C271.885 20.6727 272.193 20.8853 272.523 21.032C272.861 21.1787 273.238 21.252 273.656 21.252C273.979 21.252 274.269 21.2007 274.525 21.098C274.789 20.9953 274.998 20.8523 275.152 20.669C275.306 20.4857 275.383 20.273 275.383 20.031C275.376 19.7377 275.288 19.4957 275.119 19.305C274.958 19.1143 274.731 18.9567 274.437 18.832C274.151 18.7 273.818 18.59 273.436 18.502C273.099 18.4213 272.787 18.3223 272.501 18.205C272.223 18.0877 271.981 17.9447 271.775 17.776C271.57 17.6 271.409 17.391 271.291 17.149C271.181 16.8997 271.126 16.61 271.126 16.28C271.126 15.862 271.236 15.4953 271.456 15.18C271.676 14.8647 271.981 14.6227 272.369 14.454C272.758 14.278 273.205 14.19 273.711 14.19C274.159 14.19 274.58 14.2633 274.976 14.41C275.38 14.5567 275.702 14.7583 275.944 15.015C276.091 15.1543 276.164 15.29 276.164 15.422C276.164 15.532 276.117 15.6347 276.021 15.73C275.933 15.818 275.831 15.862 275.713 15.862C275.633 15.862 275.559 15.8327 275.493 15.774C275.369 15.6347 275.211 15.51 275.02 15.4C274.83 15.29 274.621 15.202 274.393 15.136C274.166 15.07 273.939 15.037 273.711 15.037C273.374 15.037 273.077 15.0883 272.82 15.191C272.564 15.2863 272.362 15.4257 272.215 15.609C272.076 15.785 272.006 15.9977 272.006 16.247C272.006 16.5257 272.087 16.7567 272.248 16.94C272.41 17.116 272.626 17.2627 272.897 17.38C273.169 17.49 273.469 17.589 273.799 17.677C274.159 17.765 274.489 17.8677 274.789 17.985C275.097 18.095 275.361 18.2343 275.581 18.403C275.801 18.5717 275.97 18.788 276.087 19.052C276.212 19.3087 276.274 19.6277 276.274 20.009C276.274 20.4123 276.161 20.7717 275.933 21.087C275.706 21.4023 275.394 21.6517 274.998 21.835C274.61 22.011 274.17 22.1027 273.678 22.11ZM281.854 16.313C281.986 16.313 282.092 16.357 282.173 16.445C282.253 16.5257 282.294 16.6283 282.294 16.753V19.756C282.294 20.4967 282.085 21.0723 281.667 21.483C281.256 21.8863 280.68 22.088 279.94 22.088C279.206 22.088 278.631 21.8863 278.213 21.483C277.802 21.0723 277.597 20.4967 277.597 19.756V16.753C277.597 16.6283 277.637 16.5257 277.718 16.445C277.806 16.357 277.912 16.313 278.037 16.313C278.169 16.313 278.275 16.357 278.356 16.445C278.436 16.5257 278.477 16.6283 278.477 16.753V19.756C278.477 20.2547 278.605 20.6323 278.862 20.889C279.118 21.1457 279.478 21.274 279.94 21.274C280.416 21.274 280.779 21.1457 281.029 20.889C281.285 20.6323 281.414 20.2547 281.414 19.756V16.753C281.414 16.6283 281.454 16.5257 281.535 16.445C281.623 16.357 281.729 16.313 281.854 16.313ZM286.751 16.17C287.25 16.17 287.642 16.2727 287.928 16.478C288.214 16.6833 288.416 16.9583 288.533 17.303C288.658 17.6477 288.72 18.0327 288.72 18.458V21.549C288.72 21.6737 288.676 21.78 288.588 21.868C288.507 21.956 288.405 22 288.28 22C288.155 22 288.049 21.956 287.961 21.868C287.88 21.78 287.84 21.6737 287.84 21.549V18.48C287.84 18.2013 287.796 17.952 287.708 17.732C287.627 17.5047 287.488 17.325 287.29 17.193C287.099 17.0537 286.835 16.984 286.498 16.984C286.19 16.984 285.908 17.0537 285.651 17.193C285.394 17.325 285.189 17.5047 285.035 17.732C284.881 17.952 284.804 18.2013 284.804 18.48V21.549C284.804 21.6737 284.76 21.78 284.672 21.868C284.591 21.956 284.489 22 284.364 22C284.239 22 284.133 21.956 284.045 21.868C283.964 21.78 283.924 21.6737 283.924 21.549V16.753C283.924 16.6283 283.964 16.5257 284.045 16.445C284.133 16.357 284.239 16.313 284.364 16.313C284.496 16.313 284.602 16.357 284.683 16.445C284.764 16.5257 284.804 16.6283 284.804 16.753V17.534L284.584 17.776C284.621 17.5853 284.705 17.3947 284.837 17.204C284.969 17.006 285.134 16.83 285.332 16.676C285.53 16.522 285.75 16.401 285.992 16.313C286.234 16.2177 286.487 16.17 286.751 16.17Z" fill="black"/>
<path opacity="0.7" d="M278.566 41.698C278.753 41.698 278.907 41.7633 279.028 41.894C279.159 42.0153 279.224 42.1693 279.224 42.356C279.224 42.5427 279.159 42.6967 279.028 42.818C278.907 42.9393 278.753 43 278.566 43H273.652C273.447 43 273.283 42.9393 273.162 42.818C273.041 42.6967 272.98 42.5333 272.98 42.328C272.98 42.1413 273.045 41.9733 273.176 41.824L276.298 38.45C276.699 38.0207 277.007 37.596 277.222 37.176C277.446 36.756 277.558 36.3873 277.558 36.07C277.558 35.5567 277.404 35.1413 277.096 34.824C276.788 34.5067 276.382 34.348 275.878 34.348C275.663 34.348 275.444 34.3993 275.22 34.502C275.005 34.5953 274.8 34.726 274.604 34.894C274.417 35.0527 274.254 35.2393 274.114 35.454C274.021 35.5847 273.927 35.6687 273.834 35.706C273.741 35.7433 273.652 35.762 273.568 35.762C273.391 35.762 273.227 35.7013 273.078 35.58C272.938 35.4493 272.868 35.3 272.868 35.132C272.868 35.0013 272.91 34.8753 272.994 34.754C273.078 34.6327 273.185 34.5067 273.316 34.376C273.521 34.124 273.769 33.9 274.058 33.704C274.357 33.4987 274.669 33.34 274.996 33.228C275.323 33.116 275.645 33.06 275.962 33.06C276.578 33.06 277.11 33.1813 277.558 33.424C278.015 33.6667 278.365 34.0073 278.608 34.446C278.86 34.8847 278.986 35.4027 278.986 36C278.986 36.504 278.832 37.064 278.524 37.68C278.225 38.2867 277.805 38.884 277.264 39.472L275.094 41.838L274.94 41.698H278.566ZM283.332 43.098C282.968 43.098 282.59 43.042 282.198 42.93C281.816 42.818 281.489 42.65 281.218 42.426C281.116 42.342 281.036 42.2347 280.98 42.104C280.924 41.9733 280.896 41.8473 280.896 41.726C280.896 41.5953 280.952 41.4693 281.064 41.348C281.186 41.2173 281.349 41.152 281.554 41.152C281.704 41.152 281.876 41.2267 282.072 41.376C282.259 41.4973 282.455 41.6 282.66 41.684C282.875 41.768 283.094 41.81 283.318 41.81C283.804 41.81 284.224 41.7213 284.578 41.544C284.933 41.3667 285.204 41.1193 285.39 40.802C285.586 40.4753 285.684 40.0973 285.684 39.668C285.684 39.2667 285.596 38.926 285.418 38.646C285.241 38.3567 284.998 38.1327 284.69 37.974C284.392 37.8153 284.056 37.736 283.682 37.736C283.374 37.736 283.104 37.7873 282.87 37.89C282.637 37.9833 282.427 38.0813 282.24 38.184C282.054 38.2773 281.881 38.324 281.722 38.324C281.48 38.324 281.298 38.2727 281.176 38.17C281.055 38.058 280.976 37.9273 280.938 37.778C280.91 37.6193 280.906 37.4747 280.924 37.344L281.414 33.83C281.442 33.6713 281.517 33.5407 281.638 33.438C281.769 33.326 281.928 33.27 282.114 33.27H286.216C286.403 33.27 286.557 33.3353 286.678 33.466C286.809 33.5873 286.874 33.7413 286.874 33.928C286.874 34.1147 286.809 34.2687 286.678 34.39C286.557 34.5113 286.403 34.572 286.216 34.572H282.464L282.618 34.446L282.17 37.456L281.96 37.036C282.044 36.9427 282.184 36.854 282.38 36.77C282.586 36.6767 282.814 36.602 283.066 36.546C283.328 36.4807 283.589 36.448 283.85 36.448C284.466 36.448 285.017 36.588 285.502 36.868C285.997 37.1387 286.384 37.5167 286.664 38.002C286.944 38.4873 287.084 39.038 287.084 39.654C287.084 40.3447 286.93 40.9513 286.622 41.474C286.314 41.9873 285.88 42.3887 285.32 42.678C284.76 42.958 284.098 43.098 283.332 43.098Z" fill="black"/>
<path fill-rule="evenodd" clip-rule="evenodd" d="M307.104 34.8536C306.908 35.0488 306.592 35.0488 306.396 34.8536C306.201 34.6583 306.201 34.3417 306.396 34.1464L311.543 29L306.396 23.8536C306.201 23.6583 306.201 23.3417 306.396 23.1464C306.592 22.9512 306.908 22.9512 307.104 23.1464L312.604 28.6464C312.799 28.8417 312.799 29.1583 312.604 29.3536L307.104 34.8536Z" fill="black" fill-opacity="0.4"/>
</svg>
