<svg width="24" height="24" viewBox="0 0 24 24" fill="none" xmlns="http://www.w3.org/2000/svg">
<path d="M18.2422 3.61354H16.9682V2.82802C16.9682 2.38209 16.6073 2 16.1402 2C15.6731 2 15.3122 2.36091 15.3122 2.82802V3.61354H8.68799V2.82802C8.68799 2.38209 8.32707 2 7.85996 2C7.39287 2 7.03194 2.36091 7.03194 2.82802V3.61354H5.75799C3.67735 3.61354 2 5.29074 2 7.37153V18.4118C2 20.4925 3.69855 22.1698 5.75799 22.1698H18.242C20.3226 22.1698 22 20.4926 22 18.4118V7.37153C22 5.2909 20.3015 3.61354 18.242 3.61354H18.2422ZM5.75814 5.24839H7.03209V6.03392C7.03209 6.47985 7.39301 6.86194 7.86012 6.86194C8.32721 6.86194 8.68814 6.50103 8.68814 6.03392V5.24839H15.3123V6.03392C15.3123 6.47985 15.6732 6.86194 16.1403 6.86194C16.6074 6.86194 16.9684 6.50103 16.9684 6.03392V5.24839H18.2423C19.4101 5.24839 20.3443 6.20377 20.3443 7.37153V8.45429H3.65642V7.37153C3.65642 6.20377 4.59049 5.24839 5.75825 5.24839H5.75814ZM18.2422 20.5137H5.75814C4.59038 20.5137 3.635 19.5584 3.635 18.3906V10.0891H20.3441V18.3906C20.3441 19.5795 19.41 20.5137 18.2422 20.5137H18.2422Z" fill="white"/>
<circle cx="7" cy="13.2" r="1" fill="white"/>
<circle cx="12" cy="13.2" r="1" fill="white"/>
<circle cx="17" cy="13.2" r="1" fill="white"/>
<circle cx="7" cy="17.2" r="1" fill="white"/>
<circle cx="12" cy="17.2" r="1" fill="white"/>
<circle cx="17" cy="17.2" r="1" fill="white"/>
</svg>
