<svg width="24" height="24" viewBox="0 0 24 24" fill="none" xmlns="http://www.w3.org/2000/svg">
<path d="M15.5726 12.971H7.94868C7.58707 12.971 7.31587 13.2422 7.31587 13.5837C7.31587 13.9353 7.58707 14.2065 7.94868 14.2065H15.5726C15.9241 14.2065 16.1853 13.9353 16.1853 13.5837C16.1853 13.2422 15.9241 12.971 15.5726 12.971ZM15.5726 16.4766H7.94868C7.58707 16.4766 7.31587 16.7578 7.31587 17.1093C7.31587 17.4509 7.58707 17.7121 7.94868 17.7121H15.5726C15.9241 17.7121 16.1853 17.4509 16.1853 17.1093C16.1853 16.7578 15.9241 16.4766 15.5726 16.4766ZM6.54243 22.3929H17.2098C19.2891 22.3929 20.3236 21.3381 20.3236 19.2489V10.1283C20.3236 8.83259 20.173 8.27009 19.3695 7.44643L13.8348 1.81138C13.0714 1.0279 12.4386 0.857143 11.3136 0.857143H6.54243C4.47323 0.857143 3.42859 1.92188 3.42859 4.01116V19.2489C3.42859 21.3482 4.46319 22.3929 6.54243 22.3929ZM6.61274 20.7757C5.57814 20.7757 5.04578 20.2233 5.04578 19.2188V4.04129C5.04578 3.04688 5.57814 2.47433 6.62278 2.47433H11.0927V8.31027C11.0927 9.57591 11.7255 10.1986 12.981 10.1986H18.7065V19.2188C18.7065 20.2233 18.1741 20.7757 17.1295 20.7757H6.61274ZM13.1619 8.68192C12.76 8.68192 12.6094 8.52121 12.6094 8.11942V2.78571L18.3951 8.68192H13.1619Z" fill="white"/>
</svg>
