<svg width="24" height="24" viewBox="0 0 24 24" fill="none" xmlns="http://www.w3.org/2000/svg">
<path d="M18.8333 1.5H16.1667C15.9284 1.5 15.7084 1.62708 15.5893 1.83333C15.4703 2.03958 15.4703 2.29375 15.5893 2.5C15.7084 2.70625 15.9284 2.83333 16.1667 2.83333H18.1667V20.1667H4.83333V2.83333H6.83334C7.07158 2.83333 7.29166 2.70625 7.41071 2.5C7.52976 2.29375 7.52976 2.03958 7.41071 1.83333C7.29166 1.62709 7.07157 1.5 6.83334 1.5H4.16667C3.98988 1.5 3.82024 1.57024 3.69524 1.69524C3.57024 1.82024 3.5 1.98988 3.5 2.16667V20.8333C3.5 21.0101 3.57024 21.1798 3.69524 21.3048C3.82024 21.4298 3.98988 21.5 4.16667 21.5H18.8333C19.0101 21.5 19.1798 21.4298 19.3048 21.3048C19.4298 21.1798 19.5 21.0101 19.5 20.8333V2.16667C19.5 1.98988 19.4298 1.82024 19.3048 1.69524C19.1798 1.57024 19.0101 1.5 18.8333 1.5Z" fill="white"/>
<path d="M8.8328 5.5H14.1661C14.3429 5.5 14.5126 5.42976 14.6376 5.30476C14.7626 5.17976 14.8328 5.01012 14.8328 4.83333V2.16667C14.8328 1.98988 14.7626 1.82024 14.6376 1.69524C14.5126 1.57024 14.3429 1.5 14.1661 1.5H8.8328C8.65602 1.5 8.48637 1.57024 8.36138 1.69524C8.23638 1.82024 8.16614 1.98988 8.16614 2.16667V4.83333C8.16614 5.01012 8.23638 5.17976 8.36138 5.30476C8.48637 5.42976 8.65602 5.5 8.8328 5.5ZM9.49947 2.83333H13.4995V4.16667H9.49947V2.83333Z" fill="white"/>
<path d="M8.83281 16.1668C9.00959 16.1668 9.17924 16.0965 9.30424 15.9715C9.42924 15.8465 9.49948 15.6769 9.49948 15.5001V13.1068L11.5594 15.1668L10.3594 16.3601C10.2332 16.4852 10.1623 16.6556 10.1623 16.8334C10.1623 17.0113 10.2332 17.1817 10.3594 17.3068C10.4846 17.433 10.655 17.504 10.8328 17.504C11.0106 17.504 11.181 17.433 11.3062 17.3068L12.4995 16.1068L13.6928 17.3068C13.8179 17.433 13.9883 17.504 14.1661 17.504C14.344 17.504 14.5144 17.433 14.6395 17.3068C14.7657 17.1817 14.8367 17.0113 14.8367 16.8334C14.8367 16.6556 14.7657 16.4852 14.6395 16.3601L13.4395 15.1668L14.6395 13.9735C14.8086 13.8043 14.8746 13.5579 14.8127 13.3269C14.7508 13.0958 14.5705 12.9154 14.3394 12.8535C14.1084 12.7916 13.862 12.8577 13.6928 13.0267L12.4995 14.2267L10.4395 12.1668H10.8328C11.7855 12.1668 12.6658 11.6584 13.1422 10.8334C13.6185 10.0084 13.6185 8.99176 13.1422 8.16677C12.6658 7.34178 11.7855 6.83344 10.8328 6.83344H8.8328C8.65602 6.83344 8.48637 6.90368 8.36138 7.02867C8.23638 7.15367 8.16614 7.32332 8.16614 7.5001V15.5001C8.16614 15.6769 8.23638 15.8465 8.36138 15.9715C8.48637 16.0965 8.65602 16.1668 8.83281 16.1668ZM9.49948 8.16677H10.8328C11.3092 8.16677 11.7493 8.42094 11.9876 8.83344C12.2256 9.24593 12.2256 9.75428 11.9876 10.1668C11.7493 10.5793 11.3091 10.8334 10.8328 10.8334H9.49948V8.16677Z" fill="white"/>
</svg>
