<svg width="24" height="24" viewBox="0 0 24 24" fill="none" xmlns="http://www.w3.org/2000/svg">
<path fill-rule="evenodd" clip-rule="evenodd" d="M12.1395 1.71429C9.41256 1.71429 7.18957 3.93182 7.18957 6.65619C7.18957 8.41554 8.11685 9.96531 9.50828 10.8424C6.22197 11.9386 3.85718 15.0335 3.85718 18.687V21.2626C3.85586 21.5897 4.12016 21.856 4.44726 21.8571H19.8311C20.1582 21.856 20.4225 21.5897 20.4212 21.2626V18.687C20.4212 15.0334 18.0565 11.9387 14.7701 10.8424C16.1615 9.96531 17.0888 8.41554 17.0888 6.65619C17.0888 3.93203 14.866 1.71429 12.1388 1.71429H12.1395ZM12.1395 2.89562C14.2273 2.89562 15.9045 4.57318 15.9045 6.65598C15.9045 8.73882 14.2273 10.4175 12.1395 10.4175C10.0517 10.4175 8.3745 8.73882 8.3745 6.65598C8.3745 4.57313 10.0517 2.89562 12.1395 2.89562ZM12.1395 11.6022C16.0828 11.6022 19.2369 14.7512 19.2369 18.6869V20.6724L5.04254 20.6723V18.6868C5.04254 14.7512 8.19644 11.6021 12.1399 11.6021L12.1395 11.6022ZM14.8597 14.7596C14.7025 14.7591 14.5516 14.8209 14.4402 14.9315C14.3286 15.0423 14.2656 15.1927 14.265 15.3499V16.5L13.1149 16.4998C12.957 16.4993 12.8053 16.5618 12.6937 16.6734C12.582 16.7851 12.5195 16.9367 12.5202 17.0945C12.5208 17.2517 12.5838 17.4021 12.6954 17.5129C12.8068 17.6235 12.9577 17.6853 13.1149 17.6846H14.265V18.8347C14.2656 18.9919 14.3286 19.1423 14.4402 19.2531C14.5516 19.3637 14.7025 19.4255 14.8597 19.4248C15.185 19.4237 15.4485 19.1602 15.4498 18.8347V17.6846H16.5999C16.7571 17.6853 16.908 17.6235 17.0194 17.5129C17.131 17.4021 17.1939 17.2517 17.1946 17.0945C17.1953 16.9367 17.1328 16.7851 17.021 16.6734C16.9095 16.5618 16.7577 16.4993 16.5999 16.4998H15.4498V15.3499C15.4485 15.0244 15.185 14.7609 14.8597 14.7596Z" fill="white"/>
</svg>
