<svg width="24" height="24" viewBox="0 0 24 24" fill="none" xmlns="http://www.w3.org/2000/svg">
<g clip-path="url(#clip0_145_761)">
<path d="M8.09695 10.1575H15.6907C15.9835 10.1575 16.2331 9.91649 16.2331 9.62371C16.2331 9.33101 15.9835 9.08129 15.6907 9.08129H8.09695C7.80422 9.08129 7.55454 9.33101 7.55454 9.62371C7.55454 9.91649 7.80422 10.1575 8.09695 10.1575ZM8.09695 13.2139H15.6907C15.992 13.2139 16.2331 12.9729 16.2331 12.6716C16.2331 12.3788 15.992 12.1464 15.6907 12.1464H8.09695C7.79561 12.1464 7.55454 12.3788 7.55454 12.6716C7.55454 12.9729 7.79561 13.2139 8.09695 13.2139ZM8.09695 16.434H11.9197C12.2124 16.434 12.4535 16.1929 12.4535 15.9002C12.4535 15.6075 12.221 15.3664 11.9197 15.3664H8.09695C7.79561 15.3664 7.55454 15.6075 7.55454 15.9002C7.55454 16.1929 7.80422 16.434 8.09695 16.434ZM7.32208 21.8409H16.4656C18.2478 21.8409 19.1346 20.9455 19.1346 19.1374V6.08515C19.1346 4.32016 18.2822 3.3817 16.5603 3.3817H16.3537C16.3623 3.45058 16.3623 3.52807 16.3623 3.59695V4.37182C16.3623 4.50957 16.3537 4.64733 16.3278 4.76786H16.5345C17.3437 4.76786 17.7484 5.29305 17.7484 6.10237V19.1202C17.7484 19.9812 17.2921 20.4547 16.3967 20.4547H7.39096C6.49555 20.4547 6.03924 19.9812 6.03924 19.1202V6.10237C6.03924 5.29305 6.44389 4.76786 7.2532 4.76786H7.45983C7.43401 4.64733 7.4254 4.50957 7.4254 4.37182V3.59695C7.4254 3.52807 7.4254 3.45058 7.43401 3.3817H7.22738C5.50544 3.3817 4.65308 4.32016 4.65308 6.08515V19.1374C4.65308 20.9455 5.53987 21.8409 7.32208 21.8409ZM9.23344 5.35332H14.5543C15.0535 5.35332 15.3549 5.03476 15.3549 4.50096V3.59695C15.3549 3.06315 15.0535 2.74458 14.5543 2.74458H13.7621C13.7019 1.77169 12.8925 0.979599 11.8938 0.979599C10.8951 0.979599 10.0858 1.77169 10.0255 2.74458H9.23344C8.73407 2.74458 8.43273 3.06315 8.43273 3.59695V4.50096C8.43273 5.03476 8.73407 5.35332 9.23344 5.35332ZM11.8938 3.5625C11.4806 3.5625 11.1448 3.21812 11.1448 2.81346C11.1448 2.39159 11.4806 2.05581 11.8938 2.05581C12.3071 2.05581 12.6429 2.39159 12.6429 2.81346C12.6429 3.21812 12.3071 3.5625 11.8938 3.5625Z" fill="white"/>
</g>
<defs>
<clipPath id="clip0_145_761">
<rect width="14.4815" height="21.86" fill="white" transform="translate(4.65308 0.979599)"/>
</clipPath>
</defs>
</svg>
