<svg width="24" height="24" viewBox="0 0 24 24" fill="none" xmlns="http://www.w3.org/2000/svg">
<g clip-path="url(#clip0_145_206)">
<path d="M13.2714 23.4078C16.7325 23.4078 18.7988 22.1853 18.7988 20.1534V15.4267C20.2882 14.1524 21.1665 12.0775 21.1665 9.78731C21.1665 4.49233 17.7312 0.979576 12.5912 0.979576C7.47704 0.979576 4.06759 4.42345 4.06759 9.58931C4.06759 9.9078 4.0762 10.1661 4.10204 10.4072L2.90529 12.551C2.59534 13.1106 2.44897 13.6359 2.44897 14.1266C2.44897 15.0822 3.05165 15.8485 4.06759 16.0724V18.0182C4.06759 19.6454 5.19547 20.4289 6.67634 20.2739L8.43271 20.0845L7.82142 19.4388V20.1534C7.82142 22.1853 9.85329 23.4078 13.2714 23.4078ZM13.2714 22.0217C10.6884 22.0217 9.1301 21.2037 9.1301 19.8779V18.7844C9.1301 18.6639 9.06122 18.6122 8.94069 18.6208L6.49553 18.8963C5.83259 18.9653 5.45375 18.6725 5.45375 17.9149V15.0565C5.45375 14.9704 5.38488 14.91 5.28156 14.91H4.82525C4.20535 14.91 3.85236 14.6001 3.85236 14.1008C3.85236 13.851 3.93845 13.5497 4.11065 13.2398L5.53124 10.6913C5.47098 10.3125 5.44514 9.93366 5.44514 9.57204C5.44514 5.24137 8.29496 2.36574 12.5912 2.36574C16.8961 2.36574 19.7803 5.32747 19.7803 9.78731C19.7803 11.9311 18.8849 13.7908 17.4126 14.7379V19.8779C17.4126 21.2037 15.8543 22.0217 13.2714 22.0217ZM6.85714 8.12562C6.85714 9.78731 8.01084 10.9065 9.71555 10.9065C11.3945 10.9065 12.5396 9.9078 12.5396 8.40976C12.5396 7.78984 12.3243 7.26465 11.9282 6.93749C11.7561 6.79112 11.6355 6.73946 11.4719 6.73946C11.2222 6.73946 11.0328 6.90305 11.0328 7.14411C11.0328 7.41102 11.2051 7.49711 11.3772 7.6607C11.5494 7.83289 11.6527 8.08257 11.6527 8.39249C11.6527 9.36545 10.8865 10.0112 9.72416 10.0112C8.53603 10.0112 7.75255 9.26207 7.75255 8.12562C7.75255 7.43684 8.11416 6.79973 8.70822 6.46395L8.26052 5.66325C7.40816 6.16261 6.85714 7.11829 6.85714 8.12562ZM8.04528 5.81823C8.04528 6.88582 8.80293 7.60904 9.91361 7.60904C10.1461 7.60904 10.3613 7.40241 10.3613 7.16133C10.3613 6.92027 10.1547 6.71363 9.91361 6.71363C9.32812 6.71363 8.94069 6.36064 8.94069 5.81823C8.94069 5.24998 9.41422 4.83672 10.0686 4.83672C10.4216 4.83672 10.7832 4.96586 11.0759 5.18972L11.6011 4.4579C11.1534 4.12211 10.6282 3.94131 10.0772 3.94131C8.92346 3.94131 8.04528 4.74201 8.04528 5.81823ZM10.4043 5.69769C10.3957 5.96459 10.5851 6.17122 10.852 6.17122C11.1104 6.17122 11.2825 5.99903 11.2912 5.73213C11.3342 4.92282 11.911 4.36319 12.7118 4.35458C13.1853 4.35458 13.6071 4.60425 13.7708 5.00031C13.8396 5.12945 13.9774 5.12945 14.1754 5.07779C14.2787 5.04335 14.3992 5.03474 14.5198 5.03474C15.329 5.03474 15.9576 5.66325 15.9576 6.49839C15.9576 8.52165 13.0045 8.17728 13.0045 10.3297C13.0045 11.3026 13.7879 11.9914 14.89 11.9914C14.9675 11.9914 15.0449 11.9914 15.1396 11.9914C15.2861 12.8696 15.8543 13.4722 16.5602 13.4722C17.5762 13.4722 18.2994 12.31 18.2994 10.6999C18.2994 10.0714 18.2564 9.65815 18.222 9.26207L17.3093 9.52039C17.3524 9.9078 17.404 10.2436 17.404 10.6827C17.404 11.7417 17.0252 12.5769 16.5602 12.5769C16.1556 12.5769 15.8887 12.0775 15.8887 11.3543C15.8887 11.2337 15.8026 11.1735 15.6907 11.1735C15.5529 11.1735 15.3894 11.182 15.2861 11.182C14.3648 11.182 13.9085 10.8893 13.9085 10.3211C13.9085 8.75411 16.8616 9.20183 16.8616 6.49839C16.8616 5.15527 15.8801 4.13072 14.6059 4.13072C14.5112 4.13072 14.3992 4.13933 14.2873 4.16516C13.9085 3.72607 13.3316 3.46778 12.7118 3.46778C11.4117 3.46778 10.456 4.38041 10.4043 5.69769ZM15.639 10.037C15.639 10.278 15.8198 10.4675 16.0695 10.4933C17.6365 10.588 18.7041 9.64955 18.7041 8.16867C18.7041 6.90305 17.7828 5.94737 16.4225 5.81823L16.2847 6.72224C17.1974 6.67919 17.8086 7.26465 17.8086 8.16867C17.8086 9.09853 17.1285 9.67534 16.0867 9.5979C15.8543 9.58064 15.639 9.7959 15.639 10.037ZM13.4866 10.5277C13.2197 10.631 12.8753 10.6913 12.5567 10.6913C11.7561 10.6913 10.9984 10.3469 10.7918 9.88201L10.0427 10.5019C10.5421 11.182 11.4547 11.5867 12.4879 11.5867C12.9098 11.5867 13.3661 11.5179 13.7794 11.38L13.4866 10.5277ZM11.8766 7.42823L12.1693 8.28921C13.3402 8.09119 13.9602 7.38519 13.9602 6.22288C13.9602 5.99042 13.7449 5.77517 13.5038 5.77517C13.2628 5.77517 13.0647 5.98181 13.0647 6.23149C13.0647 6.98914 12.7031 7.34214 11.8766 7.42823Z" fill="#776EA5"/>
</g>
<defs>
<clipPath id="clip0_145_206">
<rect width="18.7175" height="22.4971" fill="white" transform="translate(2.44897 0.979576)"/>
</clipPath>
</defs>
</svg>
