<svg width="56" height="56" viewBox="0 0 56 56" fill="none" xmlns="http://www.w3.org/2000/svg">
<g clip-path="url(#clip0_145_131)">
<path d="M21.9208 35.9919C21.393 35.9919 20.9684 35.4832 20.9684 34.8559C20.9684 34.2286 21.3968 33.7199 21.9208 33.7199H27.1341C27.6619 33.7199 28.0865 34.2286 28.0865 34.8559C28.0865 35.4832 27.6581 35.9919 27.1341 35.9919H21.9208ZM39.7638 31.2834C42.6937 31.2834 45.3443 32.4692 47.2644 34.3892C49.1845 36.3093 50.3702 38.96 50.3702 41.8898C50.3702 44.8197 49.1845 47.4703 47.2644 49.3904C45.3443 51.3105 42.6937 52.4962 39.7638 52.4962C36.834 52.4962 34.1834 51.3105 32.2633 49.3904C30.3432 47.4703 29.1575 44.8197 29.1575 41.8898C29.1575 38.96 30.3432 36.3093 32.2633 34.3892C34.1834 32.4692 36.834 31.2834 39.7638 31.2834ZM38.953 36.929C38.953 36.4049 39.3775 35.9804 39.9015 35.9804C40.4255 35.9804 40.8501 36.4049 40.8501 36.929V41.8707L44.5449 44.0585C44.9963 44.3224 45.1454 44.9038 44.8777 45.3551C44.6138 45.8065 44.0324 45.9557 43.5811 45.6879L39.4693 43.2515C39.1633 43.0946 38.953 42.7772 38.953 42.4062V36.929ZM45.9257 35.7318C44.3499 34.1559 42.1697 33.1806 39.7638 33.1806C37.358 33.1806 35.1778 34.1559 33.602 35.7318C32.0261 37.3076 31.0508 39.4878 31.0508 41.8936C31.0508 44.2995 32.0261 46.4797 33.602 48.0555C35.1778 49.6314 37.358 50.6067 39.7638 50.6067C42.1697 50.6067 44.3499 49.6314 45.9257 48.0555C47.5015 46.4797 48.4769 44.2995 48.4769 41.8936C48.4769 39.4878 47.5015 37.3076 45.9257 35.7318ZM23.8677 47.5506C24.495 47.5506 25.0037 48.0593 25.0037 48.6866C25.0037 49.3139 24.495 49.8226 23.8677 49.8226H9.64681C8.92008 49.8226 8.25838 49.5243 7.77645 49.0461C7.29834 48.568 7 47.9063 7 47.1796V8.14681C7 7.41626 7.29834 6.75838 7.77645 6.27645C8.25456 5.79834 8.91626 5.5 9.64681 5.5H42.12C42.8467 5.5 43.5084 5.79834 43.9903 6.27645C44.4684 6.75456 44.7668 7.41626 44.7668 8.14681V26.2308C44.7668 26.8581 44.2581 27.3668 43.6308 27.3668C43.0035 27.3668 42.4948 26.8581 42.4948 26.2308V8.14681C42.4948 8.04736 42.4527 7.95557 42.3839 7.88672C42.315 7.81787 42.2232 7.7758 42.1238 7.7758H9.64681C9.54736 7.7758 9.45174 7.81787 9.38672 7.88672C9.31405 7.95174 9.27197 8.04354 9.27197 8.14681V47.1796C9.27197 47.2791 9.31405 47.3747 9.38289 47.4397C9.45174 47.5085 9.54354 47.5506 9.64299 47.5506H23.8677ZM14.3132 33.2265H17.1627C17.3692 33.2265 17.5375 33.3948 17.5375 33.6013V36.4508C17.5375 36.6574 17.3692 36.8257 17.1627 36.8257H14.3132C14.1066 36.8257 13.9383 36.6574 13.9383 36.4508V33.6013C13.9421 33.391 14.1104 33.2265 14.3132 33.2265ZM14.3132 13.7196H17.1627C17.3692 13.7196 17.5375 13.8879 17.5375 14.0945V16.944C17.5375 17.1506 17.3692 17.3188 17.1627 17.3188H14.3132C14.1066 17.3188 13.9383 17.1506 13.9383 16.944V14.0945C13.9421 13.8879 14.1104 13.7196 14.3132 13.7196ZM21.9208 16.485C21.393 16.485 20.9684 15.9763 20.9684 15.349C20.9684 14.7218 21.3968 14.2131 21.9208 14.2131H35.4838C36.0116 14.2131 36.4362 14.7218 36.4362 15.349C36.4362 15.9763 36.0078 16.485 35.4838 16.485H21.9208ZM15.4797 26.9728C15.2349 27.1679 14.8831 27.1182 14.6344 26.8772C14.6077 26.8581 14.5809 26.8351 14.5541 26.8083L13.3608 25.5767C13.1121 25.3167 13.1695 24.8844 13.4908 24.6091C13.8121 24.3337 14.2749 24.3184 14.5273 24.5785L15.1776 25.2478L17.2698 23.5649C17.549 23.3392 17.9774 23.4386 18.2222 23.7829C18.467 24.1271 18.4364 24.5899 18.1571 24.8156L15.4797 26.9728ZM21.2935 26.0204C20.7657 26.0204 20.3411 25.5117 20.3411 24.8844C20.3411 24.2572 20.7695 23.7485 21.2935 23.7485H34.8565C35.3844 23.7485 35.8089 24.2572 35.8089 24.8844C35.8089 25.5117 35.3805 26.0204 34.8565 26.0204H21.2935Z" fill="#CC627B" stroke="#CC627B"/>
</g>
<defs>
<clipPath id="clip0_145_131">
<rect width="45" height="48" fill="white" transform="translate(6 5)"/>
</clipPath>
</defs>
</svg>
