<svg width="24" height="24" viewBox="0 0 24 24" fill="none" xmlns="http://www.w3.org/2000/svg">
<path d="M20.0918 12.7556H3.8849C3.39582 12.7556 3 12.3597 3 11.8707C3 11.3816 3.39584 10.9858 3.8849 10.9858H20.1151C20.6042 10.9858 21 11.3816 21 11.8707C21 12.3597 20.6041 12.7556 20.0918 12.7556Z" fill="white"/>
<path d="M20.0918 5.7698H3.8849C3.39582 5.7698 3 5.37397 3 4.8849C3 4.39584 3.39584 4 3.8849 4H20.1151C20.6042 4 21 4.39584 21 4.8849C21 5.37397 20.6041 5.7698 20.0918 5.7698Z" fill="white"/>
<path d="M20.0918 19.7413H3.8849C3.39582 19.7413 3 19.3455 3 18.8564C3 18.3674 3.39584 17.9715 3.8849 17.9715H20.1151C20.6042 17.9715 21 18.3674 21 18.8564C21 19.3455 20.6041 19.7413 20.0918 19.7413Z" fill="white"/>
</svg>
