<svg width="24" height="24" viewBox="0 0 24 24" fill="none" xmlns="http://www.w3.org/2000/svg">
<path d="M19.6769 7.49714C19.9875 8.0351 19.8033 8.72313 19.2651 9.03392C18.727 9.34449 18.039 9.16027 17.7284 8.62212C17.4176 8.08396 17.602 7.39593 18.14 7.08534C18.6781 6.77457 19.3662 6.95899 19.6769 7.49714Z" fill="#776EA5"/>
<path d="M20.801 11.4378C20.6345 11.1505 20.3494 10.9516 20.0223 10.8941C19.6953 10.8367 19.3596 10.9267 19.1051 11.1402C18.8507 11.3534 18.7033 11.6683 18.7027 12.0003C18.7027 13.7905 17.9916 15.5076 16.7257 16.7734C15.4599 18.0392 13.7428 18.7504 11.9526 18.7504C10.1624 18.7504 8.44533 18.0392 7.17951 16.7734C5.9137 15.5076 5.20251 13.7905 5.20251 12.0003C5.20251 10.21 5.9137 8.49296 7.17951 7.22714C8.44533 5.96133 10.1624 5.25014 11.9526 5.25014C12.1498 5.25152 12.3436 5.2009 12.5151 5.10379C12.8062 4.93879 13.0087 4.65294 13.0678 4.32374C13.127 3.99453 13.0364 3.6559 12.821 3.40006C12.6053 3.14422 12.2871 2.99767 11.9526 3.00003C9.56559 3.00003 7.27644 3.94822 5.58864 5.63603C3.90083 7.32403 2.95264 9.61323 2.95264 12C2.95264 14.3868 3.90083 16.6762 5.58864 18.364C7.27664 20.0518 9.56584 21 11.9526 21C14.3394 21 16.6288 20.0518 18.3166 18.364C20.0044 16.676 20.9526 14.3868 20.9526 12C20.9522 11.8025 20.8998 11.6084 20.8008 11.4375L20.801 11.4378Z" fill="#776EA5"/>
<path d="M16.4572 4.27466C16.9954 4.58543 17.1798 5.27348 16.869 5.81164C16.5584 6.3496 15.8704 6.53403 15.3322 6.22345C14.7941 5.91268 14.6098 5.22463 14.9204 4.68647C15.2312 4.14831 15.9192 3.96408 16.4572 4.27466Z" fill="#776EA5"/>
<path d="M11.3898 7.50019C11.0914 7.50019 10.8051 7.61888 10.5942 7.82979C10.3833 8.04069 10.2646 8.32693 10.2646 8.62535V11.4379C10.2646 12.0348 10.5018 12.607 10.9238 13.0289C11.3457 13.4509 11.9179 13.6881 12.5148 13.6881H14.7649C15.0633 13.6881 15.3494 13.5694 15.5605 13.3585C15.7714 13.1476 15.8899 12.8613 15.8899 12.5629C15.8899 12.2645 15.7714 11.9784 15.5605 11.7673C15.3494 11.5564 15.0633 11.4379 14.7649 11.4379H12.5148V8.62534C12.5148 8.32694 12.3963 8.04068 12.1854 7.82978C11.9743 7.61888 11.6882 7.50019 11.3898 7.50019Z" fill="#776EA5"/>
</svg>
