<svg width="56" height="56" viewBox="0 0 56 56" fill="none" xmlns="http://www.w3.org/2000/svg">
<path d="M43.9438 3.50008H37.7216C37.1657 3.50008 36.6522 3.7966 36.3744 4.27785C36.0966 4.75911 36.0966 5.35217 36.3744 5.83341C36.6522 6.31465 37.1657 6.61119 37.7216 6.61119H42.3883V47.0556H11.2771V6.61119H15.9438C16.4997 6.61119 17.0132 6.31466 17.291 5.83341C17.5688 5.35216 17.5688 4.7591 17.291 4.27785C17.0132 3.79661 16.4997 3.50008 15.9438 3.50008H9.72157C9.30907 3.50008 8.91323 3.66397 8.62157 3.95563C8.32991 4.24729 8.16602 4.64313 8.16602 5.05563V48.6112C8.16602 49.0237 8.32991 49.4195 8.62157 49.7112C8.91323 50.0029 9.30907 50.1667 9.72157 50.1667H43.9438C44.3563 50.1667 44.7522 50.0029 45.0438 49.7112C45.3355 49.4195 45.4994 49.0237 45.4994 48.6112V5.05563C45.4994 4.64313 45.3355 4.24729 45.0438 3.95563C44.7522 3.66397 44.3563 3.50008 43.9438 3.50008Z" fill="#776EA5"/>
<path d="M20.6093 12.8334H33.0537C33.4662 12.8334 33.8621 12.6695 34.1537 12.3779C34.4454 12.0862 34.6093 11.6904 34.6093 11.2779V5.05563C34.6093 4.64313 34.4454 4.24729 34.1537 3.95563C33.8621 3.66397 33.4662 3.50008 33.0537 3.50008H20.6093C20.1968 3.50008 19.8009 3.66397 19.5093 3.95563C19.2176 4.24729 19.0537 4.64313 19.0537 5.05563V11.2779C19.0537 11.6904 19.2176 12.0862 19.5093 12.3779C19.8009 12.6695 20.1968 12.8334 20.6093 12.8334ZM22.1648 6.61119H31.4982V9.7223H22.1648V6.61119Z" fill="#776EA5"/>
<path d="M20.6093 37.7224C21.0218 37.7224 21.4176 37.5585 21.7093 37.2669C22.0009 36.9752 22.1648 36.5794 22.1648 36.1669V30.5825L26.9714 35.3891L24.1714 38.1735C23.877 38.4655 23.7113 38.8631 23.7113 39.278C23.7113 39.693 23.877 40.0905 24.1714 40.3825C24.4634 40.677 24.861 40.8426 25.2759 40.8426C25.6909 40.8426 26.0884 40.677 26.3805 40.3825L29.1648 37.5825L31.9492 40.3825C32.2412 40.677 32.6388 40.8426 33.0537 40.8426C33.4687 40.8426 33.8662 40.677 34.1583 40.3825C34.4527 40.0905 34.6183 39.693 34.6183 39.278C34.6183 38.8631 34.4527 38.4655 34.1583 38.1735L31.3583 35.3891L34.1583 32.6048C34.5527 32.21 34.7069 31.635 34.5624 31.096C34.418 30.5568 33.9972 30.136 33.4579 29.9915C32.919 29.8471 32.344 30.0012 31.9492 30.3957L29.1648 33.1957L24.3582 28.3891H25.2759C27.4989 28.3891 29.553 27.203 30.6645 25.278C31.7759 23.353 31.7759 20.9807 30.6645 19.0558C29.553 17.1308 27.4989 15.9447 25.2759 15.9447H20.6093C20.1968 15.9447 19.8009 16.1085 19.5093 16.4002C19.2176 16.6919 19.0537 17.0877 19.0537 17.5002V36.1669C19.0537 36.5794 19.2176 36.9752 19.5093 37.2669C19.8009 37.5585 20.1968 37.7224 20.6093 37.7224ZM22.1648 19.0558H25.2759C26.3874 19.0558 27.4145 19.6488 27.9704 20.6113C28.5259 21.5738 28.5259 22.76 27.9704 23.7224C27.4144 24.6849 26.3873 25.278 25.2759 25.278H22.1648V19.0558Z" fill="#776EA5"/>
</svg>
