<svg width="40" height="40" viewBox="0 0 40 40" fill="none" xmlns="http://www.w3.org/2000/svg">
<path d="M7.42847 27.4866C7.42847 28.4642 8.17847 29.1072 9.45079 29.1072H15.1026C15.2097 31.692 17.232 33.9553 20.058 33.9553C22.8973 33.9553 24.9196 31.7054 25.0266 29.1072H30.6785C31.9374 29.1072 32.7008 28.4642 32.7008 27.4866C32.7008 26.1473 31.3348 24.9419 30.183 23.7499C29.299 22.8259 29.058 20.9241 28.9508 19.3839C28.857 14.1071 27.491 10.7054 23.9285 9.41964C23.4732 7.66517 22.0401 6.28571 20.058 6.28571C18.0892 6.28571 16.6428 7.66517 16.2008 9.41964C12.6383 10.7054 11.2722 14.1071 11.1785 19.3839C11.0713 20.9241 10.8302 22.8259 9.94632 23.7499C8.78114 24.9419 7.42847 26.1473 7.42847 27.4866ZM10.0267 27.0848V26.9241C10.2678 26.5358 11.0713 25.7455 11.7678 24.9688C12.732 23.8974 13.1874 22.1696 13.3079 19.558C13.4151 13.7054 15.1561 11.8437 17.4463 11.2143C17.7811 11.1339 17.9686 10.9732 17.982 10.625C18.0222 9.23213 18.8258 8.25446 20.058 8.25446C21.3034 8.25446 22.0936 9.23213 22.1472 10.625C22.1606 10.9732 22.3348 11.1339 22.6695 11.2143C24.9732 11.8437 26.7142 13.7054 26.8214 19.558C26.9418 22.1696 27.3973 23.8974 28.3481 24.9688C29.058 25.7455 29.8481 26.5358 30.0892 26.9241V27.0848H10.0267ZM17.1919 29.1072H22.9374C22.8303 30.9286 21.6785 32.067 20.058 32.067C18.4508 32.067 17.2856 30.9286 17.1919 29.1072Z" fill="#776EA5"/>
</svg>
