<svg width="56" height="56" viewBox="0 0 56 56" fill="none" xmlns="http://www.w3.org/2000/svg">
<path fill-rule="evenodd" clip-rule="evenodd" d="M27.9143 5C21.6868 5 16.6101 10.0641 16.6101 16.2858C16.6101 20.3036 18.7278 23.8428 21.9053 25.8457C14.4004 28.349 9.00001 35.4169 9.00001 43.7604V49.6422C8.99699 50.3892 9.60057 50.9973 10.3476 51H45.4794C46.2265 50.9974 46.8301 50.3893 46.827 49.6422V43.7604C46.827 35.4168 41.4268 28.3494 33.9217 25.8457C37.0992 23.8428 39.2169 20.3036 39.2169 16.2858C39.2169 10.0646 34.1406 5 27.9127 5H27.9143ZM27.9143 7.6978C32.6821 7.6978 36.5124 11.5288 36.5124 16.2853C36.5124 21.0418 32.6821 24.8755 27.9143 24.8755C23.1464 24.8755 19.3162 21.0418 19.3162 16.2853C19.3162 11.5287 23.1464 7.6978 27.9143 7.6978ZM27.9143 27.581C36.9196 27.581 44.1225 34.7722 44.1225 43.7603V48.2945L11.707 48.2941V43.7599C11.707 34.7722 18.9095 27.5806 27.9152 27.5806L27.9143 27.581ZM34.1263 34.7915C33.7674 34.7903 33.4227 34.9315 33.1683 35.184C32.9135 35.4369 32.7697 35.7805 32.7682 36.1394V38.7659L30.1417 38.7655C29.7812 38.7644 29.4347 38.9071 29.1799 39.1619C28.9247 39.417 28.782 39.7632 28.7835 40.1237C28.7851 40.4826 28.9289 40.8262 29.1837 41.0791C29.4381 41.3316 29.7827 41.4728 30.1417 41.4713H32.7682V44.0977C32.7697 44.4567 32.9135 44.8002 33.1683 45.0531C33.4227 45.3056 33.7673 45.4468 34.1263 45.4453C34.8692 45.4427 35.4709 44.841 35.4739 44.0978V41.4713H38.1004C38.4593 41.4728 38.804 41.3316 39.0584 41.0791C39.3132 40.8262 39.457 40.4827 39.4585 40.1237C39.46 39.7632 39.3173 39.4171 39.0622 39.1619C38.8074 38.9071 38.4608 38.7644 38.1004 38.7656H35.4739V36.1395C35.4709 35.3962 34.8692 34.7945 34.1263 34.7915Z" fill="#776EA5"/>
<path d="M34.1263 34.7918V34.7915M34.1263 34.7915C33.7674 34.7903 33.4227 34.9315 33.1683 35.184C32.9135 35.4369 32.7697 35.7805 32.7682 36.1394V38.7659L30.1417 38.7655C29.7812 38.7644 29.4347 38.9071 29.1799 39.1619C28.9247 39.417 28.782 39.7632 28.7835 40.1237C28.7851 40.4826 28.9289 40.8262 29.1837 41.0791C29.4381 41.3316 29.7827 41.4728 30.1417 41.4713H32.7682V44.0977C32.7697 44.4567 32.9135 44.8002 33.1683 45.0531C33.4227 45.3057 33.7673 45.4468 34.1263 45.4453C34.8692 45.4427 35.4709 44.841 35.4739 44.0978V41.4713H38.1004C38.4593 41.4728 38.804 41.3316 39.0584 41.0791C39.3132 40.8262 39.457 40.4827 39.4585 40.1237C39.46 39.7632 39.3173 39.4171 39.0622 39.1619C38.8074 38.9071 38.4608 38.7644 38.1004 38.7656H35.4739V36.1395C35.4709 35.3962 34.8692 34.7945 34.1263 34.7915ZM27.9143 5C21.6868 5 16.6101 10.0641 16.6101 16.2858C16.6101 20.3036 18.7278 23.8428 21.9053 25.8457C14.4004 28.349 9.00001 35.4169 9.00001 43.7605V49.6422C8.99699 50.3892 9.60057 50.9973 10.3476 51H45.4794C46.2265 50.9974 46.8301 50.3893 46.827 49.6422V43.7605C46.827 35.4168 41.4268 28.3494 33.9217 25.8457C37.0992 23.8428 39.2169 20.3036 39.2169 16.2858C39.2169 10.0646 34.1406 5 27.9127 5H27.9143ZM27.9143 7.6978C32.6821 7.6978 36.5124 11.5288 36.5124 16.2853C36.5124 21.0418 32.6821 24.8755 27.9143 24.8755C23.1464 24.8755 19.3162 21.0418 19.3162 16.2853C19.3162 11.5287 23.1464 7.6978 27.9143 7.6978ZM27.9143 27.581C36.9196 27.581 44.1225 34.7722 44.1225 43.7603V48.2945L11.707 48.2941V43.7599C11.707 34.7722 18.9095 27.5806 27.9152 27.5806L27.9143 27.581Z" stroke="#776EA5"/>
</svg>
