<svg width="20" height="20" viewBox="0 0 20 20" fill="none" xmlns="http://www.w3.org/2000/svg">
<path fill-rule="evenodd" clip-rule="evenodd" d="M7.38628 16.553C7.1422 16.7971 6.74647 16.7971 6.50239 16.553C6.25832 16.309 6.25832 15.9132 6.50239 15.6692L12.1715 10L6.50239 4.33086C6.25832 4.08678 6.25832 3.69106 6.50239 3.44698C6.74647 3.2029 7.1422 3.2029 7.38628 3.44698L13.4934 9.55413C13.4948 9.55543 13.4961 9.55674 13.4974 9.55805C13.6194 9.68009 13.6804 9.84004 13.6804 10C13.6804 10.022 13.6793 10.044 13.677 10.0659C13.6625 10.2033 13.6026 10.3367 13.4974 10.442C13.4961 10.4433 13.4948 10.4446 13.4934 10.4459L7.38628 16.553Z" fill="black" fill-opacity="0.4"/>
</svg>
